<svg width="24" height="24" viewBox="0 0 24 24" fill="none" xmlns="http://www.w3.org/2000/svg">
<path d="M19 3H5C4.46957 3 3.96086 3.21071 3.58579 3.58579C3.21071 3.96086 3 4.46957 3 5V19C3 19.5304 3.21071 20.0391 3.58579 20.4142C3.96086 20.7893 4.46957 21 5 21H19C19.5304 21 20.0391 20.7893 20.4142 20.4142C20.7893 20.0391 21 19.5304 21 19V5C21 4.46957 20.7893 3.96086 20.4142 3.58579C20.0391 3.21071 19.5304 3 19 3ZM13.94 14.81L11.73 17C11.08 17.67 10.22 18 9.36 18C8.5 18 7.64 17.67 7 17C5.67 15.71 5.67 13.58 7 12.26L8.35 10.9L8.34 11.5C8.33 12 8.41 12.5 8.57 12.94L8.62 13.09L8.22 13.5C8.06846 13.6487 7.94808 13.8261 7.8659 14.0218C7.78372 14.2175 7.7414 14.4277 7.7414 14.64C7.7414 14.8523 7.78372 15.0625 7.8659 15.2582C7.94808 15.4539 8.06846 15.6313 8.22 15.78C8.83 16.4 9.89 16.4 10.5 15.78L12.7 13.59C13 13.28 13.18 12.87 13.18 12.44C13.18 12 13 11.61 12.7 11.3C12.6178 11.219 12.5524 11.1225 12.5079 11.0161C12.4633 10.9096 12.4403 10.7954 12.4403 10.68C12.4403 10.5646 12.4633 10.4504 12.5079 10.3439C12.5524 10.2375 12.6178 10.141 12.7 10.06C13.03 9.73 13.61 9.74 13.94 10.06C14.57 10.7 14.92 11.54 14.92 12.44C14.92 13.34 14.57 14.18 13.94 14.81ZM17 11.74L15.66 13.1V12.5C15.67 12 15.59 11.5 15.43 11.06L15.38 10.92L15.78 10.5C15.9315 10.3513 16.0519 10.1739 16.1341 9.9782C16.2163 9.78245 16.2586 9.57229 16.2586 9.36C16.2586 9.14771 16.2163 8.93755 16.1341 8.74181C16.0519 8.54606 15.9315 8.36867 15.78 8.22C15.17 7.6 14.1 7.61 13.5 8.22L11.3 10.42C11 10.72 10.82 11.13 10.82 11.56C10.82 12 11 12.39 11.3 12.7C11.47 12.86 11.56 13.08 11.56 13.32C11.56 13.56 11.47 13.78 11.3 13.94C11.2186 14.0209 11.1218 14.0848 11.0153 14.1277C10.9088 14.1706 10.7948 14.1918 10.68 14.19C10.46 14.19 10.23 14.11 10.06 13.94C9.43042 13.3099 9.07676 12.4557 9.07676 11.565C9.07676 10.6743 9.43042 9.82005 10.06 9.19L12.27 7C12.5782 6.68524 12.9462 6.43517 13.3523 6.26445C13.7584 6.09373 14.1945 6.00579 14.635 6.00579C15.0755 6.00579 15.5116 6.09373 15.9177 6.26445C16.3238 6.43517 16.6918 6.68524 17 7C17.65 7.62 18 8.46 18 9.36C18 10.26 17.65 11.1 17 11.74Z" fill="#141414"/>
</svg>
