<?xml version="1.0" encoding="utf-8"?>
<!-- Generator: Adobe Illustrator 16.0.0, SVG Export Plug-In . SVG Version: 6.00 Build 0)  -->
<!DOCTYPE svg PUBLIC "-//W3C//DTD SVG 1.1//EN" "http://www.w3.org/Graphics/SVG/1.1/DTD/svg11.dtd">
<svg version="1.1" xmlns="http://www.w3.org/2000/svg" xmlns:xlink="http://www.w3.org/1999/xlink" x="0px" y="0px" width="64px"
	 height="64px" viewBox="0 0 64 64" enable-background="new 0 0 64 64" xml:space="preserve">
<g id="_x32_5_website_x2C__structure_x2C__page_x2C__interface_x2C__website_x2C__window_x2C__program">
</g>
<g id="_x32_4_social_x2C__network_x2C__page_x2C__interface_x2C__website_x2C__window">
</g>
<g id="_x32_3_code_x2C__optimization_x2C__programming_x2C__develop_x2C__developer_x2C__program">
</g>
<g id="_x32_2_clean_x2C__code_x2C__programming_x2C__develop_x2C__developer_x2C__program">
</g>
<g id="_x32_1_map_x2C__service_x2C__search_x2C__interface_x2C__window_x2C__page_x2C__website">
</g>
<g id="_x32_0_player_x2C__program_x2C___album_x2C__music_x2C__interface_x2C__window">
</g>
<g id="_x31_9_online_x2C__training_x2C__page_x2C__interface_x2C__website_x2C__window_x2C__book_x2C__bookmark">
</g>
<g id="_x31_8_landing_x2C__page_x2C__interface_x2C__website_x2C__window_x2C__web_x2C__laptop">
</g>
<g id="_x31_7_search_x2C__system_x2C__page_x2C__interface_x2C__website_x2C__window_x2C__web">
</g>
<g id="_x31_6_antivirus_x2C__program_x2C__shield_x2C__interface_x2C__window_x2C__protection">
</g>
<g id="_x31_5_photo_x2C__retouching_x2C__program_x2C__interface_x2C__design_x2C__monitor">
</g>
<g id="_x31_4_messenger_x2C__chat_x2C__talk_x2C__page_x2C__interface_x2C__website_x2C__window">
</g>
<g id="_x31_3_online_x2C__shop_x2C__market_x2C__store_x2C__website_x2C__web_x2C__interface">
</g>
<g id="_x31_2_video_x2C__web_x2C__page_x2C__interface_x2C__website_x2C__player_x2C__window">
</g>
<g id="_x31_1_computer_x2C__game_x2C__interface_x2C__video_x2C__computer_x2C__monitor_x2C__window">
</g>
<g id="_x31_0_vector_x2C__graphics_x2C__program_x2C__interface_x2C__design_x2C__illustration_x2C__monitor">
</g>
<g id="_x39__website_x2C__programming_x2C__develop_x2C__developer_x2C__web_x2C__page_x2C__interface_1_">
	<g>
		<g>
			<rect x="3.5" y="6.243" fill="#E6E9ED" width="2" height="33.01"/>
		</g>
		<g>
			<rect x="5.5" y="6.253" fill="#434A54" width="55" height="32.99"/>
		</g>
		<g>
			<g>
				<circle fill="#CCD1D9" cx="32" cy="45.743" r="1.5"/>
			</g>
			<g>
				<path fill="#CCD1D9" d="M63.5,46.263v1.98c0,1.689-1.311,3-3,3c-0.71,0-10.63,0-22.01,0c-4.26,0-8.721,0-12.98,0
					c-11.38,0-21.3,0-22.01,0c-1.689,0-3-1.311-3-3v-1.98c0,1.65,1.35,3,3,3H32h28.5C62.15,49.263,63.5,47.913,63.5,46.263z"/>
			</g>
			<g>
				<path fill="#CCD1D9" d="M38.49,51.243l2,9H23.51l2-9C29.77,51.243,34.23,51.243,38.49,51.243z"/>
			</g>
			<path fill="#E6E9ED" d="M32,42.243H0.5v4v0.02c0,1.65,1.35,3,3,3H32h28.5c1.65,0,3-1.35,3-3v-0.02v-4H32z M32,47.243
				c-0.83,0-1.5-0.67-1.5-1.5s0.67-1.5,1.5-1.5s1.5,0.67,1.5,1.5S32.83,47.243,32,47.243z"/>
			<g>
				<path fill="#656D78" d="M63.5,6.263v35.98H32H0.5V6.263c0-1.649,1.35-3,3-3h57C62.15,3.263,63.5,4.613,63.5,6.263z M60.5,39.243
					v-31v-2h-2h-2h-3h-2h-2h-2h-2h-22h-4h-4h-4h-4h-4v2v31H60.5z"/>
			</g>
			<path fill="#AAB2BD" d="M38.713,52.243l-0.223-1c-4.26,0-8.721,0-12.98,0l-0.223,1H38.713z"/>
			<g>
				<path fill="#E6E9ED" d="M42,60.737H22c-0.276,0-0.5-0.224-0.5-0.5s0.224-0.5,0.5-0.5h20c0.276,0,0.5,0.224,0.5,0.5
					S42.276,60.737,42,60.737z"/>
			</g>
		</g>
		<g>
			<g>
				<path fill="#FFCE54" d="M12.5,9.753h-4c-0.276,0-0.5-0.224-0.5-0.5s0.224-0.5,0.5-0.5h4c0.276,0,0.5,0.224,0.5,0.5
					S12.776,9.753,12.5,9.753z"/>
			</g>
			<g>
				<path fill="#AC92EC" d="M30.5,12.753h-14c-0.276,0-0.5-0.224-0.5-0.5s0.224-0.5,0.5-0.5h14c0.276,0,0.5,0.224,0.5,0.5
					S30.776,12.753,30.5,12.753z"/>
			</g>
			<g>
				<path fill="#AC92EC" d="M14.5,12.753h-5c-0.276,0-0.5-0.224-0.5-0.5s0.224-0.5,0.5-0.5h5c0.276,0,0.5,0.224,0.5,0.5
					S14.776,12.753,14.5,12.753z"/>
			</g>
			<g>
				<path fill="#5D9CEC" d="M42.5,15.753h-13c-0.276,0-0.5-0.224-0.5-0.5s0.224-0.5,0.5-0.5h13c0.276,0,0.5,0.224,0.5,0.5
					S42.776,15.753,42.5,15.753z"/>
			</g>
			<g>
				<path fill="#5D9CEC" d="M27.5,15.753h-17c-0.276,0-0.5-0.224-0.5-0.5s0.224-0.5,0.5-0.5h17c0.276,0,0.5,0.224,0.5,0.5
					S27.776,15.753,27.5,15.753z"/>
			</g>
			<g>
				<path fill="#ED5565" d="M15.502,21.753h-3c-0.276,0-0.5-0.224-0.5-0.5s0.224-0.5,0.5-0.5h3c0.276,0,0.5,0.224,0.5,0.5
					S15.778,21.753,15.502,21.753z"/>
			</g>
			<g>
				<path fill="#ED5565" d="M32.346,21.753H17.502c-0.276,0-0.5-0.224-0.5-0.5s0.224-0.5,0.5-0.5h14.844c0.276,0,0.5,0.224,0.5,0.5
					S32.622,21.753,32.346,21.753z"/>
			</g>
			<g>
				<path fill="#A0D468" d="M34.5,18.753h-23c-0.276,0-0.5-0.224-0.5-0.5s0.224-0.5,0.5-0.5h23c0.276,0,0.5,0.224,0.5,0.5
					S34.776,18.753,34.5,18.753z"/>
			</g>
			<g>
				<path fill="#4FC1E9" d="M35.502,24.753h-9c-0.276,0-0.5-0.224-0.5-0.5s0.224-0.5,0.5-0.5h9c0.276,0,0.5,0.224,0.5,0.5
					S35.778,24.753,35.502,24.753z"/>
			</g>
			<g>
				<path fill="#A0D468" d="M28.502,27.753h-17c-0.276,0-0.5-0.224-0.5-0.5s0.224-0.5,0.5-0.5h17c0.276,0,0.5,0.224,0.5,0.5
					S28.778,27.753,28.502,27.753z"/>
			</g>
			<g>
				<path fill="#AC92EC" d="M17.5,33.753h-8c-0.276,0-0.5-0.224-0.5-0.5s0.224-0.5,0.5-0.5h8c0.276,0,0.5,0.224,0.5,0.5
					S17.776,33.753,17.5,33.753z"/>
			</g>
			<g>
				<path fill="#5D9CEC" d="M37.5,30.753h-14c-0.276,0-0.5-0.224-0.5-0.5s0.224-0.5,0.5-0.5h14c0.276,0,0.5,0.224,0.5,0.5
					S37.776,30.753,37.5,30.753z"/>
			</g>
			<g>
				<path fill="#5D9CEC" d="M21.5,30.753h-11c-0.276,0-0.5-0.224-0.5-0.5s0.224-0.5,0.5-0.5h11c0.276,0,0.5,0.224,0.5,0.5
					S21.776,30.753,21.5,30.753z"/>
			</g>
			<g>
				<path fill="#FFCE54" d="M12.5,36.753h-4c-0.276,0-0.5-0.224-0.5-0.5s0.224-0.5,0.5-0.5h4c0.276,0,0.5,0.224,0.5,0.5
					S12.776,36.753,12.5,36.753z"/>
			</g>
			<g>
				<path fill="#A0D468" d="M36.502,27.753h-6c-0.276,0-0.5-0.224-0.5-0.5s0.224-0.5,0.5-0.5h6c0.276,0,0.5,0.224,0.5,0.5
					S36.778,27.753,36.502,27.753z"/>
			</g>
			<g>
				<path fill="#4FC1E9" d="M24.502,24.753h-12c-0.276,0-0.5-0.224-0.5-0.5s0.224-0.5,0.5-0.5h12c0.276,0,0.5,0.224,0.5,0.5
					S24.778,24.753,24.502,24.753z"/>
			</g>
		</g>
		<g>
			<path fill="#CCD1D9" d="M4,24.248c0-0.276-0.224-0.5-0.5-0.5v1C3.776,24.748,4,24.524,4,24.248z"/>
			<path fill="#CCD1D9" d="M4,27.248c0-0.276-0.224-0.5-0.5-0.5v1C3.776,27.748,4,27.524,4,27.248z"/>
			<path fill="#CCD1D9" d="M4,30.248c0-0.276-0.224-0.5-0.5-0.5v1C3.776,30.748,4,30.524,4,30.248z"/>
			<path fill="#CCD1D9" d="M4,33.248c0-0.276-0.224-0.5-0.5-0.5v1C3.776,33.748,4,33.524,4,33.248z"/>
			<path fill="#CCD1D9" d="M4,36.248c0-0.276-0.224-0.5-0.5-0.5v1C3.776,36.748,4,36.524,4,36.248z"/>
			<path fill="#CCD1D9" d="M4,21.248c0-0.276-0.224-0.5-0.5-0.5v1C3.776,21.748,4,21.524,4,21.248z"/>
			<path fill="#CCD1D9" d="M4,18.248c0-0.276-0.224-0.5-0.5-0.5v1C3.776,18.748,4,18.524,4,18.248z"/>
			<path fill="#CCD1D9" d="M4,15.248c0-0.276-0.224-0.5-0.5-0.5v1C3.776,15.748,4,15.524,4,15.248z"/>
			<path fill="#CCD1D9" d="M4,12.248c0-0.276-0.224-0.5-0.5-0.5v1C3.776,12.748,4,12.524,4,12.248z"/>
			<path fill="#CCD1D9" d="M4,9.248c0-0.276-0.224-0.5-0.5-0.5v1C3.776,9.748,4,9.524,4,9.248z"/>
		</g>
		<g id="_x39__website_x2C__programming_x2C__develop_x2C__developer_x2C__web_x2C__page_x2C__interface">
			<g>
				<path fill="#E6E9ED" d="M32,6.263h28.5v33H32v-22v-8V6.263z"/>
			</g>
			<g>
				<polygon fill="#A0D468" points="32,18.753 32,8.753 33.5,8.753 57.5,8.753 57.5,18.753 33.5,18.753 				"/>
			</g>
			<g>
				<polygon fill="#F5F7FA" points="45.47,31.225 43.5,34.264 39.5,34.264 43.5,28.264 				"/>
			</g>
			<g>
				<polygon fill="#FFFFFF" points="50,24.264 56.5,34.264 43.5,34.264 45.47,31.225 				"/>
			</g>
			<g>
				<path fill="#5D9CEC" d="M35,21.264h22.5v13h-1l-6.5-10l-4.53,6.961l-1.97-2.961l-4,6H35V21.264z"/>
			</g>
			<g>
				<path fill="#CCD1D9" d="M56.999,36.763H35.5c-0.276,0-0.5-0.224-0.5-0.5s0.224-0.5,0.5-0.5h21.499c0.276,0,0.5,0.224,0.5,0.5
					S57.275,36.763,56.999,36.763z"/>
			</g>
			<path fill="#8CC152" d="M48.996,11.762H32v1h16.996c0.276,0,0.5-0.224,0.5-0.5S49.272,11.762,48.996,11.762z"/>
			<path fill="#8CC152" d="M38.986,14.748H32v1h6.986c0.276,0,0.5-0.224,0.5-0.5S39.263,14.748,38.986,14.748z"/>
			<g>
				<path fill="#FFCE54" d="M39,23.264c1.11,0,2,0.891,2,2c0,1.101-0.89,2-2,2s-2-0.899-2-2C37,24.154,37.89,23.264,39,23.264z"/>
			</g>
		</g>
		<rect x="31" y="6.263" fill="#353B44" width="1" height="33"/>
		<rect x="31" y="29.753" fill="#4A89DC" width="1" height="1"/>
		<rect x="31" y="26.753" fill="#8CC152" width="1" height="1"/>
		<rect x="31" y="23.753" fill="#3BAFDA" width="1" height="1"/>
		<rect x="31" y="20.753" fill="#DA4453" width="1" height="1"/>
		<rect x="31" y="17.753" fill="#8CC152" width="1" height="1"/>
		<rect x="31" y="14.753" fill="#4A89DC" width="1" height="1"/>
	</g>
</g>
<g id="_x38__programming_x2C__window_x2C__program_x2C__monitor_x2C__computer_x2C__develop_x2C__developer">
</g>
<g id="_x37__responsive_x2C__monitor_x2C__website_x2C__phone_x2C__interface_x2C__page_x2C__design">
</g>
<g id="_x36__page_x2C__speed_x2C__stopwatch_x2C__window_x2C__website_x2C__web_x2C__interface">
</g>
<g id="_x35__data_x2C__graph_x2C__analytics_x2C__program_x2C__page_x2C__chat_x2C__interface">
</g>
<g id="_x34__reviews_x2C__chat_x2C__talk_x2C__page_x2C__interface_x2C__web_x2C__website">
</g>
<g id="_x33__analytics_x2C__program_x2C__page_x2C__chat_x2C__graph_x2C__interface_x2C__monitoring">
</g>
<g id="_x32__program_x2C__platform_x2C__window_x2C__website_x2C__web_x2C__crown_x2C__page_x2C__interface">
</g>
<g id="_x31__operating_x2C__system_x2C__monitor_x2C__computer_x2C__folder_x2C__interface_x2C__decktop">
</g>
</svg>
