<?xml version="1.0" encoding="utf-8"?>
<!-- Generator: Adobe Illustrator 16.0.0, SVG Export Plug-In . SVG Version: 6.00 Build 0)  -->
<!DOCTYPE svg PUBLIC "-//W3C//DTD SVG 1.1//EN" "http://www.w3.org/Graphics/SVG/1.1/DTD/svg11.dtd">
<svg version="1.1" xmlns="http://www.w3.org/2000/svg" xmlns:xlink="http://www.w3.org/1999/xlink" x="0px" y="0px" width="64px"
	 height="64px" viewBox="0 0 64 64" enable-background="new 0 0 64 64" xml:space="preserve">
<g id="_x32_5_website_x2C__structure_x2C__page_x2C__interface_x2C__website_x2C__window_x2C__program">
</g>
<g id="_x32_4_social_x2C__network_x2C__page_x2C__interface_x2C__website_x2C__window">
</g>
<g id="_x32_3_code_x2C__optimization_x2C__programming_x2C__develop_x2C__developer_x2C__program">
</g>
<g id="_x32_2_clean_x2C__code_x2C__programming_x2C__develop_x2C__developer_x2C__program">
</g>
<g id="_x32_1_map_x2C__service_x2C__search_x2C__interface_x2C__window_x2C__page_x2C__website">
</g>
<g id="_x32_0_player_x2C__program_x2C___album_x2C__music_x2C__interface_x2C__window">
</g>
<g id="_x31_9_online_x2C__training_x2C__page_x2C__interface_x2C__website_x2C__window_x2C__book_x2C__bookmark">
</g>
<g id="_x31_8_landing_x2C__page_x2C__interface_x2C__website_x2C__window_x2C__web_x2C__laptop">
</g>
<g id="_x31_7_search_x2C__system_x2C__page_x2C__interface_x2C__website_x2C__window_x2C__web">
</g>
<g id="_x31_6_antivirus_x2C__program_x2C__shield_x2C__interface_x2C__window_x2C__protection">
</g>
<g id="_x31_5_photo_x2C__retouching_x2C__program_x2C__interface_x2C__design_x2C__monitor">
</g>
<g id="_x31_4_messenger_x2C__chat_x2C__talk_x2C__page_x2C__interface_x2C__website_x2C__window">
</g>
<g id="_x31_3_online_x2C__shop_x2C__market_x2C__store_x2C__website_x2C__web_x2C__interface">
</g>
<g id="_x31_2_video_x2C__web_x2C__page_x2C__interface_x2C__website_x2C__player_x2C__window">
</g>
<g id="_x31_1_computer_x2C__game_x2C__interface_x2C__video_x2C__computer_x2C__monitor_x2C__window">
</g>
<g id="_x31_0_vector_x2C__graphics_x2C__program_x2C__interface_x2C__design_x2C__illustration_x2C__monitor">
	<g>
		<g>
			<g>
				<circle fill="#CCD1D9" cx="32" cy="45.743" r="1.5"/>
			</g>
			<g>
				<path fill="#CCD1D9" d="M63.5,46.263v1.98c0,1.689-1.311,3-3,3c-0.71,0-10.63,0-22.01,0c-4.26,0-8.721,0-12.98,0
					c-11.38,0-21.3,0-22.01,0c-1.689,0-3-1.311-3-3v-1.98c0,1.65,1.35,3,3,3H32h28.5C62.15,49.263,63.5,47.913,63.5,46.263z"/>
			</g>
			<g>
				<path fill="#CCD1D9" d="M38.49,51.243l2,9H23.51l2-9C29.77,51.243,34.23,51.243,38.49,51.243z"/>
			</g>
			<path fill="#E6E9ED" d="M32,42.243H0.5v4v0.02c0,1.65,1.35,3,3,3H32h28.5c1.65,0,3-1.35,3-3v-0.02v-4H32z M32,47.243
				c-0.83,0-1.5-0.67-1.5-1.5s0.67-1.5,1.5-1.5s1.5,0.67,1.5,1.5S32.83,47.243,32,47.243z"/>
			<g>
				<path fill="#656D78" d="M63.5,6.263v35.98H32H0.5V6.263c0-1.649,1.35-3,3-3h57C62.15,3.263,63.5,4.613,63.5,6.263z M60.5,39.243
					v-31v-2h-2h-2h-3h-2h-2h-2h-2h-22h-4h-4h-4h-4h-4v2v31H60.5z"/>
			</g>
			<path fill="#AAB2BD" d="M38.713,52.243l-0.223-1c-4.26,0-8.721,0-12.98,0l-0.223,1H38.713z"/>
			<g>
				<path fill="#E6E9ED" d="M42,60.737H22c-0.276,0-0.5-0.224-0.5-0.5s0.224-0.5,0.5-0.5h20c0.276,0,0.5,0.224,0.5,0.5
					S42.276,60.737,42,60.737z"/>
			</g>
		</g>
		<g>
			<g>
				<path fill="#FFFFFF" d="M3.506,8.253h48v8v23h-48v-2v-27V8.253z"/>
				<rect x="50.505" y="8.253" fill="#E6E9ED" width="10.001" height="31"/>
				<polygon fill="#CCD1D9" points="60.506,6.253 60.506,8.253 51.506,8.253 3.506,8.253 3.506,6.253 				"/>
				<rect x="50.505" y="8.253" fill="#F5F7FA" width="10.001" height="7.492"/>
				<g>
					<path fill="#E6E9ED" d="M5.012,7.745c-0.276,0-0.505-0.224-0.505-0.5s0.219-0.5,0.494-0.5h0.011c0.275,0,0.5,0.224,0.5,0.5
						S5.287,7.745,5.012,7.745z"/>
				</g>
				<g>
					<path fill="#E6E9ED" d="M7.012,7.745c-0.276,0-0.505-0.224-0.505-0.5s0.219-0.5,0.494-0.5h0.011c0.275,0,0.5,0.224,0.5,0.5
						S7.287,7.745,7.012,7.745z"/>
				</g>
				<g>
					<path fill="#E6E9ED" d="M9.012,7.745c-0.276,0-0.505-0.224-0.505-0.5s0.219-0.5,0.494-0.5h0.011c0.275,0,0.5,0.224,0.5,0.5
						S9.287,7.745,9.012,7.745z"/>
				</g>
				<g>
					<path fill="#E6E9ED" d="M58.006,11.745h-5c-0.276,0-0.5-0.224-0.5-0.5s0.224-0.5,0.5-0.5h5c0.276,0,0.5,0.224,0.5,0.5
						S58.282,11.745,58.006,11.745z"/>
				</g>
				<g>
					<path fill="#E6E9ED" d="M58.006,13.745h-5c-0.276,0-0.5-0.224-0.5-0.5s0.224-0.5,0.5-0.5h5c0.276,0,0.5,0.224,0.5,0.5
						S58.282,13.745,58.006,13.745z"/>
				</g>
				<g>
					<g>
						<path fill="#CCD1D9" d="M53.036,18.743c-0.276,0-0.505-0.224-0.505-0.5s0.219-0.5,0.494-0.5h0.011c0.275,0,0.5,0.224,0.5,0.5
							S53.312,18.743,53.036,18.743z"/>
					</g>
					<g>
						<path fill="#CCD1D9" d="M58.006,18.743h-3c-0.276,0-0.5-0.224-0.5-0.5s0.224-0.5,0.5-0.5h3c0.276,0,0.5,0.224,0.5,0.5
							S58.282,18.743,58.006,18.743z"/>
					</g>
					<g>
						<path fill="#CCD1D9" d="M53.036,21.743c-0.276,0-0.505-0.224-0.505-0.5s0.219-0.5,0.494-0.5h0.011c0.275,0,0.5,0.224,0.5,0.5
							S53.312,21.743,53.036,21.743z"/>
					</g>
					<g>
						<path fill="#CCD1D9" d="M58.006,21.743h-3c-0.276,0-0.5-0.224-0.5-0.5s0.224-0.5,0.5-0.5h3c0.276,0,0.5,0.224,0.5,0.5
							S58.282,21.743,58.006,21.743z"/>
					</g>
					<g>
						<path fill="#CCD1D9" d="M53.036,24.743c-0.276,0-0.505-0.224-0.505-0.5s0.219-0.5,0.494-0.5h0.011c0.275,0,0.5,0.224,0.5,0.5
							S53.312,24.743,53.036,24.743z"/>
					</g>
					<g>
						<path fill="#CCD1D9" d="M58.006,24.743h-3c-0.276,0-0.5-0.224-0.5-0.5s0.224-0.5,0.5-0.5h3c0.276,0,0.5,0.224,0.5,0.5
							S58.282,24.743,58.006,24.743z"/>
					</g>
					<g>
						<path fill="#CCD1D9" d="M53.036,27.743c-0.276,0-0.505-0.224-0.505-0.5s0.219-0.5,0.494-0.5h0.011c0.275,0,0.5,0.224,0.5,0.5
							S53.312,27.743,53.036,27.743z"/>
					</g>
					<g>
						<path fill="#CCD1D9" d="M58.006,27.743h-3c-0.276,0-0.5-0.224-0.5-0.5s0.224-0.5,0.5-0.5h3c0.276,0,0.5,0.224,0.5,0.5
							S58.282,27.743,58.006,27.743z"/>
					</g>
					<g>
						<path fill="#CCD1D9" d="M53.036,30.743c-0.276,0-0.505-0.224-0.505-0.5s0.219-0.5,0.494-0.5h0.011c0.275,0,0.5,0.224,0.5,0.5
							S53.312,30.743,53.036,30.743z"/>
					</g>
					<g>
						<path fill="#CCD1D9" d="M58.006,30.743h-3c-0.276,0-0.5-0.224-0.5-0.5s0.224-0.5,0.5-0.5h3c0.276,0,0.5,0.224,0.5,0.5
							S58.282,30.743,58.006,30.743z"/>
					</g>
					<g>
						<path fill="#CCD1D9" d="M53.036,33.743c-0.276,0-0.505-0.224-0.505-0.5s0.219-0.5,0.494-0.5h0.011c0.275,0,0.5,0.224,0.5,0.5
							S53.312,33.743,53.036,33.743z"/>
					</g>
					<g>
						<path fill="#CCD1D9" d="M58.006,33.743h-3c-0.276,0-0.5-0.224-0.5-0.5s0.224-0.5,0.5-0.5h3c0.276,0,0.5,0.224,0.5,0.5
							S58.282,33.743,58.006,33.743z"/>
					</g>
					<g>
						<path fill="#CCD1D9" d="M53.036,36.746c-0.276,0-0.505-0.224-0.505-0.5s0.219-0.5,0.494-0.5h0.011c0.275,0,0.5,0.224,0.5,0.5
							S53.312,36.746,53.036,36.746z"/>
					</g>
					<g>
						<path fill="#CCD1D9" d="M58.006,36.746h-3c-0.276,0-0.5-0.224-0.5-0.5s0.224-0.5,0.5-0.5h3c0.276,0,0.5,0.224,0.5,0.5
							S58.282,36.746,58.006,36.746z"/>
					</g>
				</g>
				<polygon fill="#434A54" points="3.506,10.253 3.506,12.253 3.506,12.254 3.506,14.253 3.506,14.254 3.506,16.253 3.506,16.254 
					3.506,18.253 3.506,18.254 3.506,20.253 3.506,20.254 3.506,22.253 3.506,22.254 3.506,24.253 3.506,24.254 3.506,26.253 
					3.506,26.254 3.506,28.253 3.506,28.254 3.506,30.253 3.506,30.254 3.506,32.253 3.506,32.254 3.506,34.253 3.506,34.254 
					3.506,36.254 5.507,36.254 5.507,34.254 5.507,34.253 5.507,32.254 5.507,32.253 5.507,30.254 5.507,30.253 5.507,28.254 
					5.507,28.253 5.507,26.254 5.507,26.253 5.507,24.254 5.507,24.253 5.507,22.254 5.507,22.253 5.507,20.254 5.507,20.253 
					5.507,18.254 5.507,18.253 5.507,16.254 5.507,16.253 5.507,14.254 5.507,14.253 5.507,12.254 5.507,12.253 5.507,10.253 				
					"/>
			</g>
			<g>
				<g>
					<rect x="40.501" y="22.242" fill="#F6BB42" width="2" height="4"/>
				</g>
				<g>
					<polygon fill="#F6BB42" points="35.501,21.242 40.501,22.242 40.501,26.242 35.501,27.242 31.501,24.242 					"/>
				</g>
				<g>
					<path fill="#CCD1D9" d="M29.475,23.734c-0.254,0-0.471-0.192-0.497-0.451c-0.48-4.873-4.545-8.549-9.453-8.549
						c-0.276,0-0.5-0.224-0.5-0.5s0.224-0.5,0.5-0.5c5.425,0,9.917,4.063,10.449,9.451c0.026,0.274-0.174,0.52-0.449,0.547
						C29.508,23.733,29.491,23.734,29.475,23.734z"/>
				</g>
				<g>
					<path fill="#CCD1D9" d="M19.549,34.734c-0.276,0-0.5-0.224-0.5-0.5s0.224-0.5,0.5-0.5c4.908,0,8.974-3.676,9.454-8.549
						c0.028-0.275,0.279-0.465,0.547-0.449c0.275,0.027,0.476,0.272,0.449,0.547C29.467,30.672,24.974,34.734,19.549,34.734z"/>
				</g>
				<g>
					<path fill="#FFCE54" d="M40.501,26.733c-0.276,0-0.5-0.224-0.5-0.5v-3.998c0-0.276,0.224-0.5,0.5-0.5s0.5,0.224,0.5,0.5v3.998
						C41.001,26.51,40.777,26.733,40.501,26.733z"/>
				</g>
				<path fill="#EDAB37" d="M36.501,23.734h-4.323l-0.677,0.508l0.656,0.492h4.344c0.276,0,0.5-0.224,0.5-0.5
					S36.777,23.734,36.501,23.734z"/>
				<g>
					<path fill="#434A54" d="M29.501,23.728c-0.276,0-0.5-0.224-0.5-0.5v-6.993c0-0.276,0.224-0.5,0.5-0.5s0.5,0.224,0.5,0.5v6.993
						C30.001,23.504,29.777,23.728,29.501,23.728z"/>
				</g>
				<g>
					<path fill="#434A54" d="M29.501,32.731c-0.276,0-0.5-0.224-0.5-0.5v-6.993c0-0.276,0.224-0.5,0.5-0.5s0.5,0.224,0.5,0.5v6.993
						C30.001,32.508,29.777,32.731,29.501,32.731z"/>
				</g>
				<g>
					<path fill="#FFCE54" d="M29.501,31.742c0.824,0,1.5,0.675,1.5,1.5s-0.676,1.5-1.5,1.5s-1.5-0.675-1.5-1.5
						S28.677,31.742,29.501,31.742z"/>
				</g>
				<g>
					<path fill="#FFCE54" d="M29.501,16.742c-0.824,0-1.5-0.675-1.5-1.5s0.676-1.5,1.5-1.5s1.5,0.675,1.5,1.5
						S30.325,16.742,29.501,16.742z"/>
				</g>
				<g>
					<rect x="17.501" y="33.242" fill="#656D78" width="2" height="2"/>
				</g>
				<g>
					<polygon fill="#656D78" points="29.451,23.242 30.501,23.242 30.501,25.242 29.501,25.242 29.481,25.242 28.501,25.242 
						28.501,23.242 					"/>
				</g>
				<g>
					<polygon fill="#656D78" points="19.501,14.242 19.501,15.242 17.501,15.242 17.501,13.242 19.501,13.242 					"/>
				</g>
			</g>
		</g>
	</g>
</g>
<g id="_x39__website_x2C__programming_x2C__develop_x2C__developer_x2C__web_x2C__page_x2C__interface_1_">
</g>
<g id="_x38__programming_x2C__window_x2C__program_x2C__monitor_x2C__computer_x2C__develop_x2C__developer">
</g>
<g id="_x37__responsive_x2C__monitor_x2C__website_x2C__phone_x2C__interface_x2C__page_x2C__design">
</g>
<g id="_x36__page_x2C__speed_x2C__stopwatch_x2C__window_x2C__website_x2C__web_x2C__interface">
</g>
<g id="_x35__data_x2C__graph_x2C__analytics_x2C__program_x2C__page_x2C__chat_x2C__interface">
</g>
<g id="_x34__reviews_x2C__chat_x2C__talk_x2C__page_x2C__interface_x2C__web_x2C__website">
</g>
<g id="_x33__analytics_x2C__program_x2C__page_x2C__chat_x2C__graph_x2C__interface_x2C__monitoring">
</g>
<g id="_x32__program_x2C__platform_x2C__window_x2C__website_x2C__web_x2C__crown_x2C__page_x2C__interface">
</g>
<g id="_x31__operating_x2C__system_x2C__monitor_x2C__computer_x2C__folder_x2C__interface_x2C__decktop">
</g>
</svg>
