<?xml version="1.0" encoding="utf-8"?>
<!-- Generator: Adobe Illustrator 16.0.0, SVG Export Plug-In . SVG Version: 6.00 Build 0)  -->
<!DOCTYPE svg PUBLIC "-//W3C//DTD SVG 1.1//EN" "http://www.w3.org/Graphics/SVG/1.1/DTD/svg11.dtd">
<svg version="1.1" xmlns="http://www.w3.org/2000/svg" xmlns:xlink="http://www.w3.org/1999/xlink" x="0px" y="0px" width="64px"
	 height="64px" viewBox="0 0 64 64" enable-background="new 0 0 64 64" xml:space="preserve">
<g id="_x32_5_website_x2C__structure_x2C__page_x2C__interface_x2C__website_x2C__window_x2C__program">
	<g>
		<g>
			<path fill="#E6E9ED" d="M46.5,63.494v-20h17v20H46.5z"/>
		</g>
		<g>
			<polygon fill="#F5F7FA" points="23,18.506 24.48,20.715 24,21.506 21,21.506 			"/>
			<polygon fill="#FFFFFF" points="24.48,20.715 27,16.506 30,21.506 24,21.506 			"/>
			<path fill="#FFCE54" d="M21,14.006c0.824,0,1.5,0.676,1.5,1.5s-0.676,1.5-1.5,1.5s-1.5-0.676-1.5-1.5S20.176,14.006,21,14.006z"
				/>
			<path fill="#5D9CEC" d="M21,16.506c0.55,0,1-0.451,1-1c0-0.551-0.45-1-1-1s-1,0.449-1,1C20,16.055,20.45,16.506,21,16.506z
				 M23,18.506l-2,3h-3v-9h13v9h-1l-3-5l-2.52,4.209L23,18.506z"/>
			<rect x="18" y="4.506" fill="#A0D468" width="28" height="6"/>
			<path fill="#E6E9ED" d="M16,2.506h32v21H16V2.506z M31,12.506H18v9h3h3h6h1V12.506z M46,4.506H18v6h28V4.506z"/>
			<path fill="#CCD1D9" d="M17,0.506h30c0.55,0,1,0.449,1,1v1H16v-1C16,0.955,16.45,0.506,17,0.506z"/>
			<g>
				<path fill="#E6E9ED" d="M19.543,2.016c-0.276,0-0.505-0.223-0.505-0.5c0-0.275,0.219-0.5,0.494-0.5h0.011
					c0.275,0,0.5,0.225,0.5,0.5C20.043,1.793,19.818,2.016,19.543,2.016z"/>
			</g>
			<g>
				<path fill="#E6E9ED" d="M17.543,2.016c-0.276,0-0.505-0.223-0.505-0.5c0-0.275,0.219-0.5,0.494-0.5h0.011
					c0.275,0,0.5,0.225,0.5,0.5C18.043,1.793,17.818,2.016,17.543,2.016z"/>
			</g>
			<g>
				<path fill="#E6E9ED" d="M21.532,2.006c-0.276,0-0.505-0.225-0.505-0.5c0-0.277,0.219-0.5,0.494-0.5h0.011
					c0.275,0,0.5,0.223,0.5,0.5C22.032,1.781,21.808,2.006,21.532,2.006z"/>
			</g>
			<g>
				<path fill="#8CC152" d="M40.998,8.006H23.002c-0.276,0-0.5-0.225-0.5-0.5c0-0.277,0.224-0.5,0.5-0.5h17.996
					c0.276,0,0.5,0.223,0.5,0.5C41.498,7.781,41.274,8.006,40.998,8.006z"/>
			</g>
			<g>
				<g>
					<path fill="#CCD1D9" d="M45.5,14.506H33.501c-0.276,0-0.5-0.225-0.5-0.5c0-0.277,0.224-0.5,0.5-0.5H45.5
						c0.276,0,0.5,0.223,0.5,0.5C46,14.281,45.776,14.506,45.5,14.506z"/>
				</g>
				<g>
					<path fill="#CCD1D9" d="M45.5,16.506H33.501c-0.276,0-0.5-0.225-0.5-0.5c0-0.277,0.224-0.5,0.5-0.5H45.5
						c0.276,0,0.5,0.223,0.5,0.5C46,16.281,45.776,16.506,45.5,16.506z"/>
				</g>
				<g>
					<path fill="#CCD1D9" d="M45.5,18.506H33.501c-0.276,0-0.5-0.225-0.5-0.5c0-0.277,0.224-0.5,0.5-0.5H45.5
						c0.276,0,0.5,0.223,0.5,0.5C46,18.281,45.776,18.506,45.5,18.506z"/>
				</g>
				<g>
					<path fill="#CCD1D9" d="M39,20.506h-5.499c-0.276,0-0.5-0.225-0.5-0.5c0-0.277,0.224-0.5,0.5-0.5H39c0.276,0,0.5,0.223,0.5,0.5
						C39.5,20.281,39.276,20.506,39,20.506z"/>
				</g>
			</g>
		</g>
		<g>
			<path fill="#CCD1D9" d="M17.5,43.494h-17v-1c0-0.549,0.45-1,1-1h15c0.55,0,1,0.451,1,1V43.494z"/>
		</g>
		<g>
			<rect x="2.5" y="45.494" fill="#A0D468" width="13" height="4"/>
		</g>
		<g>
			<path fill="#E6E9ED" d="M5.5,56.494v-5h-3v5H5.5z M10.5,56.494v-5h-3v5H10.5z M15.5,49.494v-4h-13v4H15.5z M15.5,56.494v-5h-3v5
				H15.5z M17.5,43.494v20h-17v-20H17.5z"/>
		</g>
		<g>
			<rect x="25.5" y="57.494" fill="#A0D468" width="5.5" height="4"/>
		</g>
		<g>
			<path fill="#E6E9ED" d="M38.5,55.494v-4H33v4H38.5z M25.5,49.494H31v-4h-5.5V49.494z M25.5,61.494H31v-4h-5.5V61.494z
				 M23.5,43.494h17v20h-17V43.494z"/>
		</g>
		<g>
			<rect x="33" y="51.494" fill="#5D9CEC" width="5.5" height="4"/>
		</g>
		<g>
			<rect x="25.5" y="45.494" fill="#A0D468" width="5.5" height="4"/>
		</g>
		<g>
			<rect x="48.5" y="48.496" fill="#A0D468" width="13" height="6"/>
		</g>
		<g>
			<path fill="#CCD1D9" d="M46.5,42.494c0-0.549,0.45-1,1-1h15c0.55,0,1,0.451,1,1v1h-17V42.494z"/>
		</g>
		<g>
			<path fill="#CCD1D9" d="M24.5,41.494h15c0.55,0,1,0.451,1,1v1h-17v-1C23.5,41.945,23.95,41.494,24.5,41.494z"/>
		</g>
		<g>
			<path fill="#E6E9ED" d="M25.006,42.994c-0.276,0-0.505-0.223-0.505-0.5c0-0.275,0.219-0.5,0.494-0.5h0.011
				c0.275,0,0.5,0.225,0.5,0.5C25.506,42.771,25.281,42.994,25.006,42.994z"/>
		</g>
		<g>
			<path fill="#E6E9ED" d="M27.006,42.994c-0.276,0-0.505-0.223-0.505-0.5c0-0.275,0.219-0.5,0.494-0.5h0.011
				c0.275,0,0.5,0.225,0.5,0.5C27.506,42.771,27.281,42.994,27.006,42.994z"/>
		</g>
		<g>
			<path fill="#E6E9ED" d="M29.006,42.994c-0.276,0-0.505-0.223-0.505-0.5c0-0.275,0.219-0.5,0.494-0.5h0.011
				c0.275,0,0.5,0.225,0.5,0.5C29.506,42.771,29.281,42.994,29.006,42.994z"/>
		</g>
		<g>
			<path fill="#E6E9ED" d="M2.006,42.994c-0.276,0-0.505-0.223-0.505-0.5c0-0.275,0.219-0.5,0.494-0.5h0.011
				c0.275,0,0.5,0.225,0.5,0.5C2.506,42.771,2.281,42.994,2.006,42.994z"/>
		</g>
		<g>
			<path fill="#E6E9ED" d="M4.006,42.994c-0.276,0-0.505-0.223-0.505-0.5c0-0.275,0.219-0.5,0.494-0.5h0.011
				c0.275,0,0.5,0.225,0.5,0.5C4.506,42.771,4.281,42.994,4.006,42.994z"/>
		</g>
		<g>
			<path fill="#E6E9ED" d="M6.006,42.994c-0.276,0-0.505-0.223-0.505-0.5c0-0.275,0.219-0.5,0.494-0.5h0.011
				c0.275,0,0.5,0.225,0.5,0.5C6.506,42.771,6.281,42.994,6.006,42.994z"/>
		</g>
		<g>
			<path fill="#E6E9ED" d="M48.006,42.994c-0.276,0-0.505-0.223-0.505-0.5c0-0.275,0.219-0.5,0.494-0.5h0.011
				c0.275,0,0.5,0.225,0.5,0.5C48.506,42.771,48.281,42.994,48.006,42.994z"/>
		</g>
		<g>
			<path fill="#E6E9ED" d="M50.006,42.994c-0.276,0-0.505-0.223-0.505-0.5c0-0.275,0.219-0.5,0.494-0.5h0.011
				c0.275,0,0.5,0.225,0.5,0.5C50.506,42.771,50.281,42.994,50.006,42.994z"/>
		</g>
		<g>
			<path fill="#E6E9ED" d="M52.006,42.994c-0.276,0-0.505-0.223-0.505-0.5c0-0.275,0.219-0.5,0.494-0.5h0.011
				c0.275,0,0.5,0.225,0.5,0.5C52.506,42.771,52.281,42.994,52.006,42.994z"/>
		</g>
		<g>
			<path fill="#CCD1D9" d="M32,38.936c-0.276,0-0.5-0.225-0.5-0.5v-12c0-0.277,0.224-0.5,0.5-0.5s0.5,0.223,0.5,0.5v12
				C32.5,38.711,32.276,38.936,32,38.936z"/>
		</g>
		<g>
			<path fill="#E6E9ED" d="M32,38.936c-0.128,0-0.256-0.049-0.354-0.146c-0.195-0.195-0.195-0.512,0-0.707l1-1
				c0.195-0.195,0.512-0.195,0.707,0s0.195,0.512,0,0.707l-1,1C32.256,38.887,32.128,38.936,32,38.936z"/>
		</g>
		<g>
			<path fill="#E6E9ED" d="M32,38.936c-0.128,0-0.256-0.049-0.354-0.146l-1-1c-0.195-0.195-0.195-0.512,0-0.707s0.512-0.195,0.707,0
				l1,1c0.195,0.195,0.195,0.512,0,0.707C32.256,38.887,32.128,38.936,32,38.936z"/>
		</g>
		<g>
			<path fill="#CCD1D9" d="M9,38.936c-0.276,0-0.5-0.225-0.5-0.5v-6.941c0-0.275,0.224-0.5,0.5-0.5s0.5,0.225,0.5,0.5v6.941
				C9.5,38.711,9.276,38.936,9,38.936z"/>
		</g>
		<g>
			<path fill="#E6E9ED" d="M9,38.936c-0.128,0-0.256-0.049-0.354-0.146c-0.195-0.195-0.195-0.512,0-0.707l1-1
				c0.195-0.195,0.512-0.195,0.707,0s0.195,0.512,0,0.707l-1,1C9.256,38.887,9.128,38.936,9,38.936z"/>
		</g>
		<g>
			<path fill="#E6E9ED" d="M9,38.936c-0.128,0-0.256-0.049-0.354-0.146l-1-1c-0.195-0.195-0.195-0.512,0-0.707s0.512-0.195,0.707,0
				l1,1c0.195,0.195,0.195,0.512,0,0.707C9.256,38.887,9.128,38.936,9,38.936z"/>
		</g>
		<g>
			<g>
				<path fill="#CCD1D9" d="M38,46.996h-4.499c-0.276,0-0.5-0.225-0.5-0.5c0-0.277,0.224-0.5,0.5-0.5H38c0.276,0,0.5,0.223,0.5,0.5
					C38.5,46.771,38.276,46.996,38,46.996z"/>
			</g>
			<g>
				<path fill="#CCD1D9" d="M38,48.996h-4.499c-0.276,0-0.5-0.225-0.5-0.5c0-0.277,0.224-0.5,0.5-0.5H38c0.276,0,0.5,0.223,0.5,0.5
					C38.5,48.771,38.276,48.996,38,48.996z"/>
			</g>
		</g>
		<g>
			<g>
				<path fill="#CCD1D9" d="M38,58.994h-4.499c-0.276,0-0.5-0.223-0.5-0.5c0-0.275,0.224-0.5,0.5-0.5H38c0.276,0,0.5,0.225,0.5,0.5
					C38.5,58.771,38.276,58.994,38,58.994z"/>
			</g>
			<g>
				<path fill="#CCD1D9" d="M38,60.994h-4.499c-0.276,0-0.5-0.223-0.5-0.5c0-0.275,0.224-0.5,0.5-0.5H38c0.276,0,0.5,0.225,0.5,0.5
					C38.5,60.771,38.276,60.994,38,60.994z"/>
			</g>
		</g>
		<g>
			<g>
				<path fill="#CCD1D9" d="M30.499,52.994H26c-0.276,0-0.5-0.223-0.5-0.5c0-0.275,0.224-0.5,0.5-0.5h4.499
					c0.276,0,0.5,0.225,0.5,0.5C30.999,52.771,30.775,52.994,30.499,52.994z"/>
			</g>
			<g>
				<path fill="#CCD1D9" d="M30.499,54.994H26c-0.276,0-0.5-0.223-0.5-0.5c0-0.275,0.224-0.5,0.5-0.5h4.499
					c0.276,0,0.5,0.225,0.5,0.5C30.999,54.771,30.775,54.994,30.499,54.994z"/>
			</g>
		</g>
		<g>
			<path fill="#CCD1D9" d="M14.999,59.994H3c-0.276,0-0.5-0.223-0.5-0.5c0-0.275,0.224-0.5,0.5-0.5h11.999
				c0.276,0,0.5,0.225,0.5,0.5C15.499,59.771,15.275,59.994,14.999,59.994z"/>
		</g>
		<g>
			<path fill="#CCD1D9" d="M12.499,61.994H5.501c-0.276,0-0.5-0.223-0.5-0.5c0-0.275,0.224-0.5,0.5-0.5h6.998
				c0.276,0,0.5,0.225,0.5,0.5C12.999,61.771,12.775,61.994,12.499,61.994z"/>
		</g>
		<g>
			<path fill="#CCD1D9" d="M61.002,46.494H48.999c-0.276,0-0.5-0.223-0.5-0.5c0-0.275,0.224-0.5,0.5-0.5h12.003
				c0.276,0,0.5,0.225,0.5,0.5C61.502,46.271,61.278,46.494,61.002,46.494z"/>
		</g>
		<g>
			<g>
				<path fill="#CCD1D9" d="M61,57.496H49.001c-0.276,0-0.5-0.225-0.5-0.5c0-0.277,0.224-0.5,0.5-0.5H61c0.276,0,0.5,0.223,0.5,0.5
					C61.5,57.271,61.276,57.496,61,57.496z"/>
			</g>
			<g>
				<path fill="#CCD1D9" d="M61,59.496H49.001c-0.276,0-0.5-0.225-0.5-0.5c0-0.277,0.224-0.5,0.5-0.5H61c0.276,0,0.5,0.223,0.5,0.5
					C61.5,59.271,61.276,59.496,61,59.496z"/>
			</g>
			<g>
				<path fill="#CCD1D9" d="M55,61.496h-5.999c-0.276,0-0.5-0.225-0.5-0.5c0-0.277,0.224-0.5,0.5-0.5H55c0.276,0,0.5,0.223,0.5,0.5
					C55.5,61.271,55.276,61.496,55,61.496z"/>
			</g>
		</g>
		<g>
			<path fill="#CCD1D9" d="M29.5,31.994H9c-0.276,0-0.5-0.223-0.5-0.5c0-0.275,0.224-0.5,0.5-0.5h20.5c0.276,0,0.5,0.225,0.5,0.5
				C30,31.771,29.776,31.994,29.5,31.994z"/>
		</g>
		<g>
			<path fill="#CCD1D9" d="M55,38.936c-0.276,0-0.5-0.225-0.5-0.5v-6.941c0-0.275,0.224-0.5,0.5-0.5s0.5,0.225,0.5,0.5v6.941
				C55.5,38.711,55.276,38.936,55,38.936z"/>
		</g>
		<g>
			<path fill="#E6E9ED" d="M55,38.936c-0.128,0-0.256-0.049-0.354-0.146l-1-1c-0.195-0.195-0.195-0.512,0-0.707s0.512-0.195,0.707,0
				l1,1c0.195,0.195,0.195,0.512,0,0.707C55.256,38.887,55.128,38.936,55,38.936z"/>
		</g>
		<g>
			<path fill="#E6E9ED" d="M55,38.936c-0.128,0-0.256-0.049-0.354-0.146c-0.195-0.195-0.195-0.512,0-0.707l1-1
				c0.195-0.195,0.512-0.195,0.707,0s0.195,0.512,0,0.707l-1,1C55.256,38.887,55.128,38.936,55,38.936z"/>
		</g>
		<g>
			<path fill="#CCD1D9" d="M55,31.994H34.5c-0.276,0-0.5-0.223-0.5-0.5c0-0.275,0.224-0.5,0.5-0.5H55c0.276,0,0.5,0.225,0.5,0.5
				C55.5,31.771,55.276,31.994,55,31.994z"/>
		</g>
		<g>
			<g>
				<rect x="2.5" y="51.494" fill="#5D9CEC" width="3" height="5.502"/>
			</g>
			<g>
				<rect x="7.5" y="51.494" fill="#5D9CEC" width="3" height="5.502"/>
			</g>
			<g>
				<rect x="12.5" y="51.494" fill="#5D9CEC" width="3" height="5.502"/>
			</g>
		</g>
	</g>
</g>
<g id="_x32_4_social_x2C__network_x2C__page_x2C__interface_x2C__website_x2C__window">
</g>
<g id="_x32_3_code_x2C__optimization_x2C__programming_x2C__develop_x2C__developer_x2C__program">
</g>
<g id="_x32_2_clean_x2C__code_x2C__programming_x2C__develop_x2C__developer_x2C__program">
</g>
<g id="_x32_1_map_x2C__service_x2C__search_x2C__interface_x2C__window_x2C__page_x2C__website">
</g>
<g id="_x32_0_player_x2C__program_x2C___album_x2C__music_x2C__interface_x2C__window">
</g>
<g id="_x31_9_online_x2C__training_x2C__page_x2C__interface_x2C__website_x2C__window_x2C__book_x2C__bookmark">
</g>
<g id="_x31_8_landing_x2C__page_x2C__interface_x2C__website_x2C__window_x2C__web_x2C__laptop">
</g>
<g id="_x31_7_search_x2C__system_x2C__page_x2C__interface_x2C__website_x2C__window_x2C__web">
</g>
<g id="_x31_6_antivirus_x2C__program_x2C__shield_x2C__interface_x2C__window_x2C__protection">
</g>
<g id="_x31_5_photo_x2C__retouching_x2C__program_x2C__interface_x2C__design_x2C__monitor">
</g>
<g id="_x31_4_messenger_x2C__chat_x2C__talk_x2C__page_x2C__interface_x2C__website_x2C__window">
</g>
<g id="_x31_3_online_x2C__shop_x2C__market_x2C__store_x2C__website_x2C__web_x2C__interface">
</g>
<g id="_x31_2_video_x2C__web_x2C__page_x2C__interface_x2C__website_x2C__player_x2C__window">
</g>
<g id="_x31_1_computer_x2C__game_x2C__interface_x2C__video_x2C__computer_x2C__monitor_x2C__window">
</g>
<g id="_x31_0_vector_x2C__graphics_x2C__program_x2C__interface_x2C__design_x2C__illustration_x2C__monitor">
</g>
<g id="_x39__website_x2C__programming_x2C__develop_x2C__developer_x2C__web_x2C__page_x2C__interface_1_">
</g>
<g id="_x38__programming_x2C__window_x2C__program_x2C__monitor_x2C__computer_x2C__develop_x2C__developer">
</g>
<g id="_x37__responsive_x2C__monitor_x2C__website_x2C__phone_x2C__interface_x2C__page_x2C__design">
</g>
<g id="_x36__page_x2C__speed_x2C__stopwatch_x2C__window_x2C__website_x2C__web_x2C__interface">
</g>
<g id="_x35__data_x2C__graph_x2C__analytics_x2C__program_x2C__page_x2C__chat_x2C__interface">
</g>
<g id="_x34__reviews_x2C__chat_x2C__talk_x2C__page_x2C__interface_x2C__web_x2C__website">
</g>
<g id="_x33__analytics_x2C__program_x2C__page_x2C__chat_x2C__graph_x2C__interface_x2C__monitoring">
</g>
<g id="_x32__program_x2C__platform_x2C__window_x2C__website_x2C__web_x2C__crown_x2C__page_x2C__interface">
</g>
<g id="_x31__operating_x2C__system_x2C__monitor_x2C__computer_x2C__folder_x2C__interface_x2C__decktop">
</g>
</svg>
