<svg width="1647" height="383" viewBox="0 0 1647 383" fill="none" xmlns="http://www.w3.org/2000/svg">
<rect x="1" y="31" width="1616.86" height="351" rx="19" fill="white" stroke="#141414" stroke-width="2"/>
<ellipse cx="20.6001" cy="51.5" rx="7.53661" ry="7.5" fill="#FF6666"/>
<ellipse cx="41.7026" cy="51.5" rx="7.53661" ry="7.5" fill="#FFED66"/>
<ellipse cx="62.805" cy="51.5" rx="7.53661" ry="7.5" fill="#93E262"/>
<rect x="29.1367" y="1" width="1616.86" height="351" rx="19" fill="white" stroke="#141414" stroke-width="2"/>
<ellipse cx="48.7367" cy="21.5" rx="7.53661" ry="7.5" fill="#FF6666"/>
<ellipse cx="69.8392" cy="21.5" rx="7.53661" ry="7.5" fill="#FFED66"/>
<ellipse cx="90.9418" cy="21.5" rx="7.53661" ry="7.5" fill="#93E262"/>
<path d="M476.848 145C484.869 145 491.781 146.365 497.584 149.096C503.472 151.827 507.952 155.709 511.024 160.744C514.096 165.693 515.632 171.496 515.632 178.152C515.632 184.723 514.096 190.525 511.024 195.56C507.952 200.509 503.472 204.349 497.584 207.08C491.781 209.811 484.869 211.176 476.848 211.176H435.248V189.928H475.184C479.451 189.928 482.779 188.904 485.168 186.856C487.557 184.723 488.752 181.821 488.752 178.152C488.752 174.397 487.557 171.496 485.168 169.448C482.779 167.315 479.451 166.248 475.184 166.248H437.552L449.456 153.96V241H422.96V145H476.848ZM659.417 167.912H686.041L690.393 194.024V241H664.281V192.488L659.417 167.912ZM724.697 166.76V189.032C722.137 188.52 719.705 188.179 717.401 188.008C715.182 187.752 713.134 187.624 711.257 187.624C707.502 187.624 704.046 188.392 700.889 189.928C697.732 191.379 695.172 193.811 693.209 197.224C691.332 200.637 690.393 205.203 690.393 210.92L685.401 204.776C686.084 199.485 687.108 194.536 688.473 189.928C689.838 185.235 691.673 181.096 693.977 177.512C696.366 173.843 699.31 170.984 702.809 168.936C706.308 166.803 710.574 165.736 715.609 165.736C717.06 165.736 718.553 165.821 720.089 165.992C721.625 166.163 723.161 166.419 724.697 166.76ZM739.368 187.24V175.848L754.216 169.832L765.48 148.2H780.328V167.912H811.048V187.24H780.328V208.744C780.328 214.035 781.395 217.747 783.528 219.88C785.661 222.013 789.544 223.08 795.176 223.08C798.76 223.08 801.917 222.781 804.648 222.184C807.464 221.501 810.024 220.648 812.328 219.624V239.336C809.768 240.275 806.397 241.128 802.216 241.896C798.035 242.664 793.725 243.048 789.288 243.048C781.181 243.048 774.525 241.811 769.32 239.336C764.2 236.861 760.403 233.32 757.928 228.712C755.453 224.019 754.216 218.557 754.216 212.328V187.24H739.368ZM964.473 243.048C955.086 243.048 946.894 241.469 939.897 238.312C932.9 235.069 927.438 230.547 923.513 224.744C919.588 218.856 917.625 212.115 917.625 204.52C917.625 196.755 919.588 189.971 923.513 184.168C927.438 178.365 932.9 173.843 939.897 170.6C946.894 167.357 955.086 165.736 964.473 165.736C973.774 165.736 981.924 167.357 988.921 170.6C996.004 173.843 1001.51 178.365 1005.43 184.168C1009.36 189.971 1011.32 196.755 1011.32 204.52C1011.32 212.115 1009.36 218.856 1005.43 224.744C1001.51 230.547 996.004 235.069 988.921 238.312C981.924 241.469 973.774 243.048 964.473 243.048ZM964.473 223.72C968.74 223.72 972.366 222.952 975.353 221.416C978.425 219.88 980.772 217.661 982.393 214.76C984.014 211.859 984.825 208.445 984.825 204.52C984.825 200.424 984.014 196.968 982.393 194.152C980.772 191.251 978.425 189.032 975.353 187.496C972.366 185.96 968.74 185.192 964.473 185.192C960.206 185.192 956.537 185.96 953.465 187.496C950.393 189.032 948.046 191.251 946.425 194.152C944.804 196.968 943.993 200.381 943.993 204.392C943.993 208.403 944.804 211.859 946.425 214.76C948.046 217.661 950.393 219.88 953.465 221.416C956.537 222.952 960.206 223.72 964.473 223.72ZM1033.85 142.44H1060.09V241H1033.85V142.44ZM1085.99 166.76L1099.18 169.32L1112.23 166.76V241H1085.99V166.76ZM1099.05 160.744C1094.53 160.744 1090.86 159.635 1088.04 157.416C1085.23 155.112 1083.82 151.997 1083.82 148.072C1083.82 144.232 1085.23 141.16 1088.04 138.856C1090.86 136.552 1094.53 135.4 1099.05 135.4C1103.74 135.4 1107.45 136.552 1110.19 138.856C1113 141.16 1114.41 144.232 1114.41 148.072C1114.41 151.997 1113 155.112 1110.19 157.416C1107.45 159.635 1103.74 160.744 1099.05 160.744ZM1181.66 243.048C1172.27 243.048 1164.08 241.469 1157.08 238.312C1150.08 235.069 1144.62 230.547 1140.7 224.744C1136.77 218.856 1134.81 212.115 1134.81 204.52C1134.81 196.755 1136.77 189.971 1140.7 184.168C1144.62 178.365 1150.08 173.843 1157.08 170.6C1164.08 167.357 1172.27 165.736 1181.66 165.736C1190.96 165.736 1199.11 167.357 1206.11 170.6C1213.19 173.843 1218.69 178.365 1222.62 184.168C1226.54 189.971 1228.51 196.755 1228.51 204.52C1228.51 212.115 1226.54 218.856 1222.62 224.744C1218.69 230.547 1213.19 235.069 1206.11 238.312C1199.11 241.469 1190.96 243.048 1181.66 243.048ZM1181.66 223.72C1185.92 223.72 1189.55 222.952 1192.54 221.416C1195.61 219.88 1197.96 217.661 1199.58 214.76C1201.2 211.859 1202.01 208.445 1202.01 204.52C1202.01 200.424 1201.2 196.968 1199.58 194.152C1197.96 191.251 1195.61 189.032 1192.54 187.496C1189.55 185.96 1185.92 185.192 1181.66 185.192C1177.39 185.192 1173.72 185.96 1170.65 187.496C1167.58 189.032 1165.23 191.251 1163.61 194.152C1161.99 196.968 1161.18 200.381 1161.18 204.392C1161.18 208.403 1161.99 211.859 1163.61 214.76C1165.23 217.661 1167.58 219.88 1170.65 221.416C1173.72 222.952 1177.39 223.72 1181.66 223.72Z" fill="#141414"/>
<path d="M800.5 278.25C795.5 278.25 791.25 276.167 787.75 272C784.25 267.833 782.417 263.333 782.25 258.5C782.75 256.5 783.5 255.5 784.5 255.5C785.5 255.5 786.083 256.75 786.25 259.25C786.417 261.917 787.75 264.5 790.25 267C792.75 269.5 795.25 270.75 797.75 270.75C811.917 270.75 824.833 262 836.5 244.5C839.667 239.833 843.583 233.083 848.25 224.25C852.917 215.25 858.083 204 863.75 190.5L877.25 158C860.583 157.833 852.25 155.833 852.25 152C852.25 150.167 853.083 148.75 854.75 147.75C856.417 146.583 857.75 146 858.75 146C858.917 146 861 146.083 865 146.25C869 146.25 874.75 146.333 882.25 146.5C898.583 110.167 913.583 92 927.25 92C932.583 92 937.833 94.5 943 99.5C944.333 100.833 945 102.583 945 104.75C945 109.917 943.5 112.5 940.5 112.5C939.667 112.5 938.833 111.833 938 110.5C937.333 109.333 936.25 108.417 934.75 107.75C933.25 106.917 931.833 106.5 930.5 106.5C925.5 106.5 921.083 108.417 917.25 112.25C913.583 115.917 910.083 120.75 906.75 126.75C903.583 132.75 900.167 139.333 896.5 146.5H899.5C917.667 146.5 929.75 146.25 935.75 145.75C936.417 145.917 936.75 146.25 936.75 146.75C936.75 148.083 930.833 149.917 919 152.25C914.333 152.917 909.75 153.667 905.25 154.5C900.75 155.333 896.167 156.167 891.5 157C889.333 161.667 886.667 167.25 883.5 173.75C880.333 180.083 876.75 187.167 872.75 195C864.917 209.667 858.5 221.333 853.5 230C848.5 238.667 845 244.417 843 247.25C828.5 267.917 814.333 278.25 800.5 278.25Z" fill="#EEB6F7"/>
<g clip-path="url(#clip0_4_51)">
<line x1="582.47" y1="157.972" x2="532.972" y2="207.47" stroke="#0071C2" stroke-width="0.5"/>
<line x1="584.506" y1="160.009" x2="535.009" y2="209.506" stroke="#0071C2" stroke-width="0.5"/>
<line x1="586.543" y1="162.045" x2="537.045" y2="211.543" stroke="#0071C2" stroke-width="0.5"/>
<line x1="588.579" y1="164.082" x2="539.082" y2="213.579" stroke="#0071C2" stroke-width="0.5"/>
<line x1="590.616" y1="166.118" x2="541.118" y2="215.616" stroke="#0071C2" stroke-width="0.5"/>
<line x1="592.652" y1="168.155" x2="543.155" y2="217.652" stroke="#0071C2" stroke-width="0.5"/>
<line x1="594.688" y1="170.191" x2="545.191" y2="219.688" stroke="#0071C2" stroke-width="0.5"/>
<line x1="596.725" y1="172.227" x2="547.228" y2="221.725" stroke="#0071C2" stroke-width="0.5"/>
<line x1="598.761" y1="174.264" x2="549.264" y2="223.761" stroke="#0071C2" stroke-width="0.5"/>
<line x1="600.798" y1="176.3" x2="551.301" y2="225.798" stroke="#0071C2" stroke-width="0.5"/>
<line x1="602.834" y1="178.337" x2="553.337" y2="227.834" stroke="#0071C2" stroke-width="0.5"/>
<line x1="604.871" y1="180.373" x2="555.373" y2="229.871" stroke="#0071C2" stroke-width="0.5"/>
<line x1="606.907" y1="182.41" x2="557.41" y2="231.907" stroke="#0071C2" stroke-width="0.5"/>
<line x1="608.944" y1="184.446" x2="559.446" y2="233.944" stroke="#0071C2" stroke-width="0.5"/>
<line x1="610.98" y1="186.483" x2="561.483" y2="235.98" stroke="#0071C2" stroke-width="0.5"/>
<line x1="613.017" y1="188.519" x2="563.519" y2="238.017" stroke="#0071C2" stroke-width="0.5"/>
<line x1="615.053" y1="190.556" x2="565.556" y2="240.053" stroke="#0071C2" stroke-width="0.5"/>
<line x1="617.09" y1="192.592" x2="567.592" y2="242.09" stroke="#0071C2" stroke-width="0.5"/>
<line x1="619.126" y1="194.629" x2="569.629" y2="244.126" stroke="#0071C2" stroke-width="0.5"/>
<line x1="621.163" y1="196.665" x2="571.665" y2="246.163" stroke="#0071C2" stroke-width="0.5"/>
<line x1="623.199" y1="198.702" x2="573.702" y2="248.199" stroke="#0071C2" stroke-width="0.5"/>
<line x1="625.236" y1="200.738" x2="575.738" y2="250.236" stroke="#0071C2" stroke-width="0.5"/>
<line x1="627.272" y1="202.774" x2="577.775" y2="252.272" stroke="#0071C2" stroke-width="0.5"/>
<line x1="629.308" y1="204.811" x2="579.811" y2="254.308" stroke="#0071C2" stroke-width="0.5"/>
<line x1="631.345" y1="206.847" x2="581.848" y2="256.345" stroke="#0071C2" stroke-width="0.5"/>
<line x1="633.381" y1="208.884" x2="583.884" y2="258.381" stroke="#0071C2" stroke-width="0.5"/>
</g>
<path d="M582.553 170.5C603.264 170.5 620.053 187.289 620.053 208C620.053 228.711 603.264 245.5 582.553 245.5C561.842 245.5 545.053 228.711 545.053 208C545.053 187.289 561.842 170.5 582.553 170.5Z" stroke="#141414" stroke-width="5"/>
<circle cx="583" cy="168" r="3.5" fill="white" stroke="#0071C2"/>
<path d="M624.887 168L622 165.113L619.113 168L622 170.887L624.887 168ZM586 168V168.5H622V168V167.5H586V168Z" fill="#0071C2"/>
<path d="M541.113 168L544 165.113L546.887 168L544 170.887L541.113 168ZM580 168V168.5H544V168V167.5H580V168Z" fill="#0071C2"/>
<circle cx="583" cy="248" r="3.5" fill="white" stroke="#0071C2"/>
<path d="M624.887 248L622 245.113L619.113 248L622 250.887L624.887 248ZM586 248V248.5H622V248V247.5H586V248Z" fill="#0071C2"/>
<path d="M541.113 248L544 245.113L546.887 248L544 250.887L541.113 248ZM580 248V248.5H544V248V247.5H580V248Z" fill="#0071C2"/>
<path d="M972.781 110.375L982.623 120.219C983.2 120.795 983.594 121.528 983.758 122.327C983.923 123.126 983.849 123.955 983.546 124.713L978.619 137.031C978.342 137.721 977.887 138.324 977.299 138.778C976.711 139.232 976.012 139.521 975.275 139.615L964.694 140.938C964.421 140.969 964.137 141.008 963.84 141.054L962.915 141.204L962.431 141.292L960.925 141.583L959.894 141.802L958.342 142.152L956.352 142.627L953.119 143.452L951.773 143.815C951.433 143.908 951.076 143.915 950.733 143.834C950.39 143.753 950.073 143.588 949.81 143.353C949.548 143.117 949.349 142.82 949.232 142.488C949.114 142.156 949.082 141.8 949.137 141.452L949.208 141.148L949.823 138.831L950.373 136.648L950.848 134.658L951.196 133.106L951.415 132.073L951.708 130.569L951.875 129.617L952.008 128.725L953.383 117.725C953.477 116.988 953.766 116.289 954.221 115.701C954.675 115.113 955.279 114.657 955.969 114.381L968.287 109.454C969.045 109.151 969.874 109.077 970.673 109.242C971.472 109.406 972.205 109.798 972.781 110.375ZM965.052 122.052C964.526 122.579 964.15 123.237 963.964 123.958C963.779 124.679 963.789 125.437 963.996 126.152C963.844 126.241 963.704 126.349 963.579 126.473L955.125 134.927C955.07 134.983 955.031 135.054 955.015 135.131L954.829 135.933L954.458 137.481L954.279 138.213C954.261 138.283 954.261 138.357 954.28 138.427C954.299 138.497 954.336 138.561 954.388 138.612C954.439 138.664 954.503 138.701 954.573 138.72C954.643 138.739 954.717 138.739 954.787 138.721L956.281 138.356L957.871 137.985C957.947 137.968 958.017 137.929 958.073 137.873L966.527 129.419C966.651 129.295 966.759 129.155 966.848 129.004C967.554 129.207 968.301 129.22 969.013 129.041C969.726 128.862 970.378 128.498 970.905 127.986C971.431 127.474 971.813 126.832 972.011 126.124C972.209 125.417 972.217 124.67 972.034 123.959C971.85 123.247 971.482 122.597 970.966 122.074C970.45 121.551 969.806 121.174 969.097 120.98C968.389 120.787 967.641 120.784 966.931 120.972C966.221 121.16 965.574 121.533 965.054 122.052H965.052ZM974.756 106.46C975.115 106.101 975.592 105.886 976.098 105.853C976.604 105.821 977.105 105.975 977.506 106.285L977.702 106.46L986.542 115.298C986.919 115.672 987.14 116.176 987.158 116.707C987.176 117.239 986.99 117.757 986.639 118.155C986.287 118.554 985.797 118.804 985.267 118.853C984.738 118.901 984.21 118.746 983.792 118.419L983.594 118.244L974.756 109.406C974.366 109.016 974.146 108.486 974.146 107.933C974.146 107.381 974.366 106.851 974.756 106.46Z" fill="#EEB6F7"/>
<path d="M1270.87 75.2C1274.03 72 1276 67.6666 1276 62.8333C1276 58.192 1274.16 53.7408 1270.87 50.4589C1267.59 47.1771 1263.14 45.3333 1258.5 45.3333C1252.67 45.3333 1247.5 48.1666 1244.33 52.5666C1242.72 50.3216 1240.59 48.4944 1238.12 47.2364C1235.66 45.9784 1232.93 45.326 1230.17 45.3333C1225.53 45.3333 1221.07 47.1771 1217.79 50.4589C1214.51 53.7408 1212.67 58.192 1212.67 62.8333C1212.67 67.6666 1214.63 72 1217.8 75.2L1244.33 101.733L1270.87 75.2Z" fill="#FDFBD5"/>
<path d="M1220.13 72.8333C1218.82 71.5241 1217.77 69.9656 1217.06 68.2488C1216.35 66.5319 1215.99 64.691 1216 62.8333C1216 59.0761 1217.49 55.4727 1220.15 52.816C1222.81 50.1592 1226.41 48.6666 1230.17 48.6666C1235.43 48.6666 1240.03 51.5333 1242.47 55.8H1246.2C1247.44 53.6302 1249.23 51.8269 1251.39 50.5739C1253.55 49.3209 1256 48.6628 1258.5 48.6666C1262.26 48.6666 1265.86 50.1592 1268.52 52.816C1271.17 55.4727 1272.67 59.0761 1272.67 62.8333C1272.67 66.7333 1271 70.3333 1268.53 72.8333L1244.33 97L1220.13 72.8333ZM1270.87 75.2C1274.03 72 1276 67.6666 1276 62.8333C1276 58.192 1274.16 53.7408 1270.87 50.4589C1267.59 47.1771 1263.14 45.3333 1258.5 45.3333C1252.67 45.3333 1247.5 48.1666 1244.33 52.5666C1242.72 50.3216 1240.59 48.4944 1238.12 47.2364C1235.66 45.9784 1232.93 45.326 1230.17 45.3333C1225.53 45.3333 1221.07 47.1771 1217.79 50.4589C1214.51 53.7408 1212.67 58.192 1212.67 62.8333C1212.67 67.6666 1214.63 72 1217.8 75.2L1244.33 101.733L1270.87 75.2Z" fill="#141414"/>
<rect x="1203.5" y="109.5" width="5" height="5" fill="white" stroke="#0071C2"/>
<rect x="1205.5" y="31.5" width="81" height="81" stroke="#0071C2"/>
<rect x="1283.5" y="109.5" width="5" height="5" fill="white" stroke="#0071C2"/>
<rect x="1203.5" y="29.5" width="5" height="5" fill="white" stroke="#0071C2"/>
<rect x="1283.5" y="29.5" width="5" height="5" fill="white" stroke="#0071C2"/>
<rect x="108.581" y="236.384" width="189.837" height="51.2326" stroke="#0071C2"/>
<rect x="105.5" y="283.5" width="6.30462" height="6.30462" fill="white" stroke="#0071C2"/>
<rect x="294.5" y="283.5" width="6.30462" height="6.30462" fill="white" stroke="#0071C2"/>
<rect x="105.5" y="233.5" width="6.30462" height="6.30462" fill="white" stroke="#0071C2"/>
<rect x="294.5" y="233.5" width="6.30462" height="6.30462" fill="white" stroke="#0071C2"/>
<rect x="111.5" y="239.5" width="185" height="45" rx="14.5" fill="#FFB985" stroke="#141414"/>
<path d="M135.57 262.125C135.54 262.805 135.4 263.455 135.15 264.075C134.91 264.685 134.555 265.23 134.085 265.71C133.625 266.19 133.045 266.565 132.345 266.835C131.655 267.105 130.85 267.24 129.93 267.24C129.05 267.24 128.225 267.115 127.455 266.865C126.685 266.605 126.005 266.225 125.415 265.725C124.835 265.225 124.38 264.61 124.05 263.88C123.73 263.15 123.57 262.315 123.57 261.375C123.57 260.435 123.735 259.6 124.065 258.87C124.395 258.14 124.855 257.525 125.445 257.025C126.045 256.525 126.735 256.15 127.515 255.9C128.305 255.64 129.165 255.51 130.095 255.51C131.335 255.51 132.405 255.7 133.305 256.08C134.205 256.46 134.93 256.98 135.48 257.64C136.03 258.3 136.385 259.065 136.545 259.935H133.41C133.31 259.555 133.105 259.23 132.795 258.96C132.495 258.68 132.115 258.47 131.655 258.33C131.205 258.18 130.69 258.105 130.11 258.105C129.41 258.105 128.805 258.23 128.295 258.48C127.785 258.72 127.39 259.085 127.11 259.575C126.83 260.055 126.69 260.655 126.69 261.375C126.69 262.105 126.84 262.72 127.14 263.22C127.44 263.72 127.865 264.095 128.415 264.345C128.975 264.595 129.63 264.72 130.38 264.72C131.11 264.72 131.755 264.62 132.315 264.42C132.875 264.21 133.32 263.905 133.65 263.505C133.99 263.105 134.185 262.625 134.235 262.065L135.57 262.125ZM130.68 263.37V261.18H136.65V267H134.445L134.01 262.545L134.595 263.37H130.68ZM139.184 258.435H142.304L142.814 261.495V267H139.754V261.315L139.184 258.435ZM146.834 258.3V260.91C146.534 260.85 146.249 260.81 145.979 260.79C145.719 260.76 145.479 260.745 145.259 260.745C144.819 260.745 144.414 260.835 144.044 261.015C143.674 261.185 143.374 261.47 143.144 261.87C142.924 262.27 142.814 262.805 142.814 263.475L142.229 262.755C142.309 262.135 142.429 261.555 142.589 261.015C142.749 260.465 142.964 259.98 143.234 259.56C143.514 259.13 143.859 258.795 144.269 258.555C144.679 258.305 145.179 258.18 145.769 258.18C145.939 258.18 146.114 258.19 146.294 258.21C146.474 258.23 146.654 258.26 146.834 258.3ZM156.751 267L156.361 263.91L156.766 262.725L156.361 261.54L156.751 258.435H159.931L159.391 262.71L159.931 267H156.751ZM157.471 262.725C157.331 263.625 157.051 264.415 156.631 265.095C156.221 265.775 155.696 266.305 155.056 266.685C154.426 267.055 153.706 267.24 152.896 267.24C152.056 267.24 151.316 267.055 150.676 266.685C150.046 266.305 149.551 265.775 149.191 265.095C148.831 264.405 148.651 263.615 148.651 262.725C148.651 261.815 148.831 261.02 149.191 260.34C149.551 259.66 150.046 259.13 150.676 258.75C151.316 258.37 152.056 258.18 152.896 258.18C153.706 258.18 154.426 258.37 155.056 258.75C155.696 259.12 156.226 259.645 156.646 260.325C157.066 260.995 157.341 261.795 157.471 262.725ZM151.756 262.725C151.756 263.145 151.841 263.52 152.011 263.85C152.191 264.18 152.436 264.44 152.746 264.63C153.056 264.81 153.411 264.9 153.811 264.9C154.231 264.9 154.626 264.81 154.996 264.63C155.366 264.44 155.691 264.18 155.971 263.85C156.251 263.52 156.461 263.145 156.601 262.725C156.461 262.295 156.251 261.915 155.971 261.585C155.691 261.255 155.366 260.995 154.996 260.805C154.626 260.615 154.231 260.52 153.811 260.52C153.411 260.52 153.056 260.615 152.746 260.805C152.436 260.995 152.191 261.255 152.011 261.585C151.841 261.915 151.756 262.295 151.756 262.725ZM168.769 257.49C168.189 257.49 167.769 257.595 167.509 257.805C167.249 258.015 167.119 258.355 167.119 258.825V267H164.059V259.095C164.059 258.265 164.224 257.56 164.554 256.98C164.884 256.4 165.369 255.96 166.009 255.66C166.659 255.36 167.459 255.21 168.409 255.21C168.799 255.21 169.149 255.24 169.459 255.3C169.769 255.36 170.084 255.445 170.404 255.555V257.805C170.144 257.695 169.879 257.615 169.609 257.565C169.349 257.515 169.069 257.49 168.769 257.49ZM162.319 261.405V259.14H170.269V261.405H162.319ZM171.709 258.3L173.239 258.6L174.769 258.3V267H171.709V258.3ZM173.239 257.595C172.709 257.595 172.279 257.465 171.949 257.205C171.619 256.935 171.454 256.57 171.454 256.11C171.454 255.66 171.619 255.3 171.949 255.03C172.279 254.76 172.709 254.625 173.239 254.625C173.779 254.625 174.209 254.76 174.529 255.03C174.859 255.3 175.024 255.66 175.024 256.11C175.024 256.57 174.859 256.935 174.529 257.205C174.209 257.465 173.779 257.595 173.239 257.595ZM188.029 263.385C187.949 264.155 187.669 264.83 187.189 265.41C186.709 265.99 186.084 266.44 185.314 266.76C184.554 267.08 183.699 267.24 182.749 267.24C181.699 267.24 180.774 267.05 179.974 266.67C179.174 266.29 178.549 265.76 178.099 265.08C177.649 264.4 177.424 263.615 177.424 262.725C177.424 261.825 177.649 261.035 178.099 260.355C178.549 259.675 179.174 259.145 179.974 258.765C180.774 258.375 181.699 258.18 182.749 258.18C183.699 258.18 184.554 258.345 185.314 258.675C186.084 258.995 186.709 259.445 187.189 260.025C187.669 260.595 187.949 261.27 188.029 262.05H184.984C184.874 261.54 184.619 261.15 184.219 260.88C183.819 260.6 183.329 260.46 182.749 260.46C182.299 260.46 181.904 260.55 181.564 260.73C181.234 260.9 180.974 261.155 180.784 261.495C180.604 261.825 180.514 262.235 180.514 262.725C180.514 263.205 180.604 263.615 180.784 263.955C180.974 264.285 181.234 264.54 181.564 264.72C181.904 264.89 182.299 264.975 182.749 264.975C183.329 264.975 183.819 264.83 184.219 264.54C184.629 264.25 184.884 263.865 184.984 263.385H188.029ZM193.665 264.555L192.825 264.27L197.565 258.435H200.79L193.335 267H190.59V255.45H193.665V264.555ZM195.12 262.815L197.43 261.195L201.015 267H197.565L195.12 262.815ZM205.907 269.715C205.277 269.715 204.717 269.635 204.227 269.475C203.737 269.325 203.262 269.09 202.802 268.77V266.64C203.272 266.94 203.712 267.155 204.122 267.285C204.532 267.415 204.982 267.48 205.472 267.48C205.882 267.48 206.247 267.39 206.567 267.21C206.887 267.03 207.147 266.7 207.347 266.22L210.632 258.435H213.887L209.777 267.165C209.487 267.795 209.132 268.295 208.712 268.665C208.302 269.045 207.857 269.315 207.377 269.475C206.897 269.635 206.407 269.715 205.907 269.715ZM206.012 266.205L202.367 258.435H205.742L208.967 266.205H206.012ZM208.397 254.76H211.367L209.342 257.595H206.507L208.397 254.76ZM228.529 267L228.124 263.79L228.649 262.74L228.139 261.42L228.859 255.45H232.039L231.154 262.485L231.694 267H228.529ZM229.189 262.725C229.049 263.625 228.769 264.415 228.349 265.095C227.939 265.775 227.414 266.305 226.774 266.685C226.144 267.055 225.424 267.24 224.614 267.24C223.774 267.24 223.034 267.055 222.394 266.685C221.764 266.305 221.269 265.775 220.909 265.095C220.549 264.405 220.369 263.615 220.369 262.725C220.369 261.815 220.549 261.02 220.909 260.34C221.269 259.66 221.764 259.13 222.394 258.75C223.034 258.37 223.774 258.18 224.614 258.18C225.424 258.18 226.144 258.37 226.774 258.75C227.414 259.12 227.944 259.645 228.364 260.325C228.784 260.995 229.059 261.795 229.189 262.725ZM223.474 262.725C223.474 263.145 223.559 263.52 223.729 263.85C223.909 264.18 224.154 264.44 224.464 264.63C224.774 264.81 225.129 264.9 225.529 264.9C225.949 264.9 226.344 264.81 226.714 264.63C227.084 264.44 227.409 264.18 227.689 263.85C227.969 263.52 228.179 263.145 228.319 262.725C228.179 262.295 227.969 261.915 227.689 261.585C227.409 261.255 227.084 260.995 226.714 260.805C226.344 260.615 225.949 260.52 225.529 260.52C225.129 260.52 224.774 260.615 224.464 260.805C224.154 260.995 223.909 261.255 223.729 261.585C223.559 261.915 223.474 262.295 223.474 262.725ZM234.501 258.3L236.046 258.6L237.576 258.3V267H234.501V258.3ZM236.031 257.595C235.501 257.595 235.071 257.465 234.741 257.205C234.411 256.935 234.246 256.57 234.246 256.11C234.246 255.66 234.411 255.3 234.741 255.03C235.071 254.76 235.501 254.625 236.031 254.625C236.581 254.625 237.016 254.76 237.336 255.03C237.666 255.3 237.831 255.66 237.831 256.11C237.831 256.57 237.666 256.935 237.336 257.205C237.016 257.465 236.581 257.595 236.031 257.595ZM240.341 267V264.87L246.251 260.22L248.411 260.625H240.386V258.435H249.566V260.565L243.671 265.2L241.841 264.795H249.596V267H240.341ZM259.941 267L259.551 263.91L259.956 262.725L259.551 261.54L259.941 258.435H263.121L262.581 262.71L263.121 267H259.941ZM260.661 262.725C260.521 263.625 260.241 264.415 259.821 265.095C259.411 265.775 258.886 266.305 258.246 266.685C257.616 267.055 256.896 267.24 256.086 267.24C255.246 267.24 254.506 267.055 253.866 266.685C253.236 266.305 252.741 265.775 252.381 265.095C252.021 264.405 251.841 263.615 251.841 262.725C251.841 261.815 252.021 261.02 252.381 260.34C252.741 259.66 253.236 259.13 253.866 258.75C254.506 258.37 255.246 258.18 256.086 258.18C256.896 258.18 257.616 258.37 258.246 258.75C258.886 259.12 259.416 259.645 259.836 260.325C260.256 260.995 260.531 261.795 260.661 262.725ZM254.946 262.725C254.946 263.145 255.031 263.52 255.201 263.85C255.381 264.18 255.626 264.44 255.936 264.63C256.246 264.81 256.601 264.9 257.001 264.9C257.421 264.9 257.816 264.81 258.186 264.63C258.556 264.44 258.881 264.18 259.161 263.85C259.441 263.52 259.651 263.145 259.791 262.725C259.651 262.295 259.441 261.915 259.161 261.585C258.881 261.255 258.556 260.995 258.186 260.805C257.816 260.615 257.421 260.52 257.001 260.52C256.601 260.52 256.246 260.615 255.936 260.805C255.626 260.995 255.381 261.255 255.201 261.585C255.031 261.915 254.946 262.295 254.946 262.725ZM265.943 258.3L267.488 258.6L269.018 258.3V269.475H265.943V258.3ZM267.473 257.595C266.943 257.595 266.513 257.465 266.183 257.205C265.853 256.935 265.688 256.57 265.688 256.11C265.688 255.66 265.853 255.3 266.183 255.03C266.513 254.76 266.943 254.625 267.473 254.625C268.023 254.625 268.458 254.76 268.778 255.03C269.108 255.3 269.273 255.66 269.273 256.11C269.273 256.57 269.108 256.935 268.778 257.205C268.458 257.465 268.023 257.595 267.473 257.595ZM271.649 258.435H274.724L275.279 261.855V267H272.219V261.39L271.649 258.435ZM278.429 258.18C279.249 258.18 279.949 258.345 280.529 258.675C281.109 259.005 281.549 259.47 281.849 260.07C282.159 260.67 282.314 261.38 282.314 262.2V267H279.254V262.65C279.254 262.01 279.089 261.52 278.759 261.18C278.439 260.84 277.974 260.67 277.364 260.67C276.944 260.67 276.574 260.76 276.254 260.94C275.944 261.12 275.704 261.375 275.534 261.705C275.364 262.035 275.279 262.425 275.279 262.875L274.334 262.38C274.454 261.47 274.709 260.705 275.099 260.085C275.489 259.455 275.969 258.98 276.539 258.66C277.109 258.34 277.739 258.18 278.429 258.18Z" fill="#141414"/>
<rect x="1398.58" y="139.384" width="189.837" height="51.2326" stroke="#0071C2"/>
<rect x="1395.5" y="186.5" width="6.30462" height="6.30462" fill="white" stroke="#0071C2"/>
<rect x="1584.5" y="186.5" width="6.30462" height="6.30462" fill="white" stroke="#0071C2"/>
<rect x="1395.5" y="136.5" width="6.30462" height="6.30462" fill="white" stroke="#0071C2"/>
<rect x="1584.5" y="136.5" width="6.30462" height="6.30462" fill="white" stroke="#0071C2"/>
<rect x="1401.5" y="142.5" width="185" height="45" rx="14.5" fill="#BDB4FE" stroke="#141414"/>
<path d="M1444.57 163.355H1452.73V165.98H1444.57V163.355ZM1453.01 158.75V161.375H1444.67L1446.16 159.89V170H1443.05V158.75H1453.01ZM1455.24 161.435H1458.36L1458.87 164.495V170H1455.81V164.315L1455.24 161.435ZM1462.89 161.3V163.91C1462.59 163.85 1462.31 163.81 1462.04 163.79C1461.78 163.76 1461.54 163.745 1461.32 163.745C1460.88 163.745 1460.47 163.835 1460.1 164.015C1459.73 164.185 1459.43 164.47 1459.2 164.87C1458.98 165.27 1458.87 165.805 1458.87 166.475L1458.29 165.755C1458.37 165.135 1458.49 164.555 1458.65 164.015C1458.81 163.465 1459.02 162.98 1459.29 162.56C1459.57 162.13 1459.92 161.795 1460.33 161.555C1460.74 161.305 1461.24 161.18 1461.83 161.18C1462 161.18 1462.17 161.19 1462.35 161.21C1462.53 161.23 1462.71 161.26 1462.89 161.3ZM1470.15 170.24C1469.05 170.24 1468.09 170.055 1467.27 169.685C1466.45 169.305 1465.81 168.775 1465.35 168.095C1464.89 167.405 1464.66 166.615 1464.66 165.725C1464.66 164.815 1464.89 164.02 1465.35 163.34C1465.81 162.66 1466.45 162.13 1467.27 161.75C1468.09 161.37 1469.05 161.18 1470.15 161.18C1471.24 161.18 1472.2 161.37 1473.02 161.75C1473.85 162.13 1474.49 162.66 1474.95 163.34C1475.41 164.02 1475.64 164.815 1475.64 165.725C1475.64 166.615 1475.41 167.405 1474.95 168.095C1474.49 168.775 1473.85 169.305 1473.02 169.685C1472.2 170.055 1471.24 170.24 1470.15 170.24ZM1470.15 167.975C1470.65 167.975 1471.08 167.885 1471.43 167.705C1471.79 167.525 1472.06 167.265 1472.25 166.925C1472.44 166.585 1472.54 166.185 1472.54 165.725C1472.54 165.245 1472.44 164.84 1472.25 164.51C1472.06 164.17 1471.79 163.91 1471.43 163.73C1471.08 163.55 1470.65 163.46 1470.15 163.46C1469.65 163.46 1469.22 163.55 1468.86 163.73C1468.5 163.91 1468.23 164.17 1468.04 164.51C1467.85 164.84 1467.75 165.24 1467.75 165.71C1467.75 166.18 1467.85 166.585 1468.04 166.925C1468.23 167.265 1468.5 167.525 1468.86 167.705C1469.22 167.885 1469.65 167.975 1470.15 167.975ZM1477.82 161.435H1480.89L1481.45 164.855V170H1478.39V164.39L1477.82 161.435ZM1484.6 161.18C1485.42 161.18 1486.12 161.345 1486.7 161.675C1487.28 162.005 1487.72 162.47 1488.02 163.07C1488.33 163.67 1488.48 164.38 1488.48 165.2V170H1485.42V165.65C1485.42 165.01 1485.26 164.52 1484.93 164.18C1484.61 163.84 1484.14 163.67 1483.53 163.67C1483.11 163.67 1482.74 163.76 1482.42 163.94C1482.11 164.12 1481.87 164.375 1481.7 164.705C1481.53 165.035 1481.45 165.425 1481.45 165.875L1480.5 165.38C1480.62 164.47 1480.88 163.705 1481.27 163.085C1481.66 162.455 1482.14 161.98 1482.71 161.66C1483.28 161.34 1483.91 161.18 1484.6 161.18ZM1490.53 163.7V162.365L1492.27 161.66L1493.59 159.125H1495.33V161.435H1498.93V163.7H1495.33V166.22C1495.33 166.84 1495.45 167.275 1495.7 167.525C1495.95 167.775 1496.41 167.9 1497.07 167.9C1497.49 167.9 1497.86 167.865 1498.18 167.795C1498.51 167.715 1498.81 167.615 1499.08 167.495V169.805C1498.78 169.915 1498.38 170.015 1497.89 170.105C1497.4 170.195 1496.9 170.24 1496.38 170.24C1495.43 170.24 1494.65 170.095 1494.04 169.805C1493.44 169.515 1492.99 169.1 1492.7 168.56C1492.41 168.01 1492.27 167.37 1492.27 166.64V163.7H1490.53ZM1501.53 163.55H1505.48V165.965H1501.53V163.55ZM1513.5 170.24C1512.46 170.24 1511.53 170.05 1510.71 169.67C1509.9 169.29 1509.26 168.76 1508.79 168.08C1508.32 167.39 1508.09 166.59 1508.09 165.68C1508.09 164.79 1508.31 164.01 1508.76 163.34C1509.21 162.66 1509.83 162.13 1510.61 161.75C1511.4 161.37 1512.29 161.18 1513.28 161.18C1514.31 161.18 1515.18 161.405 1515.9 161.855C1516.63 162.295 1517.19 162.92 1517.58 163.73C1517.98 164.54 1518.18 165.495 1518.18 166.595H1510.56V164.75H1516.46L1515.45 165.395C1515.41 164.955 1515.3 164.585 1515.12 164.285C1514.94 163.975 1514.7 163.74 1514.4 163.58C1514.11 163.42 1513.76 163.34 1513.35 163.34C1512.9 163.34 1512.52 163.43 1512.2 163.61C1511.88 163.79 1511.63 164.04 1511.45 164.36C1511.27 164.67 1511.18 165.035 1511.18 165.455C1511.18 165.995 1511.3 166.455 1511.54 166.835C1511.79 167.205 1512.15 167.49 1512.62 167.69C1513.1 167.89 1513.68 167.99 1514.37 167.99C1515 167.99 1515.63 167.91 1516.25 167.75C1516.88 167.58 1517.45 167.345 1517.96 167.045V168.995C1517.37 169.395 1516.69 169.705 1515.93 169.925C1515.18 170.135 1514.37 170.24 1513.5 170.24ZM1520.4 161.435H1523.47L1524.03 164.855V170H1520.97V164.39L1520.4 161.435ZM1527.18 161.18C1528 161.18 1528.7 161.345 1529.28 161.675C1529.86 162.005 1530.3 162.47 1530.6 163.07C1530.91 163.67 1531.06 164.38 1531.06 165.2V170H1528V165.65C1528 165.01 1527.84 164.52 1527.51 164.18C1527.19 163.84 1526.72 163.67 1526.11 163.67C1525.69 163.67 1525.32 163.76 1525 163.94C1524.69 164.12 1524.45 164.375 1524.28 164.705C1524.11 165.035 1524.03 165.425 1524.03 165.875L1523.08 165.38C1523.2 164.47 1523.46 163.705 1523.85 163.085C1524.24 162.455 1524.72 161.98 1525.29 161.66C1525.86 161.34 1526.49 161.18 1527.18 161.18ZM1541.79 170L1541.38 166.79L1541.91 165.74L1541.4 164.42L1542.12 158.45H1545.3L1544.41 165.485L1544.95 170H1541.79ZM1542.45 165.725C1542.31 166.625 1542.03 167.415 1541.61 168.095C1541.2 168.775 1540.67 169.305 1540.03 169.685C1539.4 170.055 1538.68 170.24 1537.87 170.24C1537.03 170.24 1536.29 170.055 1535.65 169.685C1535.02 169.305 1534.53 168.775 1534.17 168.095C1533.81 167.405 1533.63 166.615 1533.63 165.725C1533.63 164.815 1533.81 164.02 1534.17 163.34C1534.53 162.66 1535.02 162.13 1535.65 161.75C1536.29 161.37 1537.03 161.18 1537.87 161.18C1538.68 161.18 1539.4 161.37 1540.03 161.75C1540.67 162.12 1541.2 162.645 1541.62 163.325C1542.04 163.995 1542.32 164.795 1542.45 165.725ZM1536.73 165.725C1536.73 166.145 1536.82 166.52 1536.99 166.85C1537.17 167.18 1537.41 167.44 1537.72 167.63C1538.03 167.81 1538.39 167.9 1538.79 167.9C1539.21 167.9 1539.6 167.81 1539.97 167.63C1540.34 167.44 1540.67 167.18 1540.95 166.85C1541.23 166.52 1541.44 166.145 1541.58 165.725C1541.44 165.295 1541.23 164.915 1540.95 164.585C1540.67 164.255 1540.34 163.995 1539.97 163.805C1539.6 163.615 1539.21 163.52 1538.79 163.52C1538.39 163.52 1538.03 163.615 1537.72 163.805C1537.41 163.995 1537.17 164.255 1536.99 164.585C1536.82 164.915 1536.73 165.295 1536.73 165.725Z" fill="#141414"/>
<rect x="896.74" y="279.384" width="104.66" height="51.2326" stroke="#0071C2"/>
<rect x="895.5" y="327.446" width="4.41203" height="4.41203" fill="white" stroke="#0071C2"/>
<rect x="997.847" y="328.393" width="4.41203" height="4.41203" fill="white" stroke="#0071C2"/>
<rect x="895.5" y="276.5" width="4.41203" height="4.41203" fill="white" stroke="#0071C2"/>
<rect x="997.847" y="277.446" width="4.41203" height="4.41203" fill="white" stroke="#0071C2"/>
<rect x="902.5" y="282.5" width="93" height="45" rx="14.5" fill="#EAFB88" stroke="#141414"/>
<path d="M920.005 304.975C920.005 305.485 920.1 305.93 920.29 306.31C920.49 306.68 920.78 306.965 921.16 307.165C921.55 307.365 922.025 307.465 922.585 307.465C923.155 307.465 923.63 307.365 924.01 307.165C924.39 306.965 924.675 306.68 924.865 306.31C925.055 305.93 925.15 305.485 925.15 304.975V298.75H928.27V305.125C928.27 306.155 928.03 307.055 927.55 307.825C927.08 308.585 926.42 309.18 925.57 309.61C924.72 310.03 923.725 310.24 922.585 310.24C921.455 310.24 920.46 310.03 919.6 309.61C918.75 309.18 918.085 308.585 917.605 307.825C917.135 307.055 916.9 306.155 916.9 305.125V298.75H920.005V304.975ZM938.141 305.095V303.205L943.661 310H939.836L936.191 305.29H937.721L934.061 310H930.281L935.831 303.22V305.08L930.611 298.75H934.496L937.796 303.01H936.266L939.521 298.75H943.346L938.141 305.095ZM953.552 298.345H955.832L951.632 310.405H949.352L953.552 298.345ZM966.042 304.975C966.042 305.485 966.137 305.93 966.327 306.31C966.527 306.68 966.817 306.965 967.197 307.165C967.587 307.365 968.062 307.465 968.622 307.465C969.192 307.465 969.667 307.365 970.047 307.165C970.427 306.965 970.712 306.68 970.902 306.31C971.092 305.93 971.187 305.485 971.187 304.975V298.75H974.307V305.125C974.307 306.155 974.067 307.055 973.587 307.825C973.117 308.585 972.457 309.18 971.607 309.61C970.757 310.03 969.762 310.24 968.622 310.24C967.492 310.24 966.497 310.03 965.637 309.61C964.787 309.18 964.122 308.585 963.642 307.825C963.172 307.055 962.937 306.155 962.937 305.125V298.75H966.042V304.975ZM977.606 298.75H980.711V310H977.606V298.75Z" fill="#141414"/>
<path d="M210.016 94V76H213.184V91.336L212.224 90.736L224.272 76H227.704L212.848 94H210.016ZM218.584 84.952L220.816 82.768L227.968 94H224.344L218.584 84.952ZM243.59 94L243.062 88.96L243.686 87.208L243.062 85.48L243.59 80.416H246.806L246.086 87.208L246.806 94H243.59ZM244.55 87.208C244.246 88.632 243.742 89.88 243.038 90.952C242.334 92.024 241.462 92.856 240.422 93.448C239.398 94.04 238.254 94.336 236.99 94.336C235.662 94.336 234.486 94.04 233.462 93.448C232.438 92.84 231.638 92 231.062 90.928C230.486 89.856 230.198 88.616 230.198 87.208C230.198 85.784 230.486 84.544 231.062 83.488C231.638 82.416 232.438 81.584 233.462 80.992C234.486 80.384 235.662 80.08 236.99 80.08C238.254 80.08 239.398 80.376 240.422 80.968C241.462 81.56 242.334 82.392 243.038 83.464C243.758 84.52 244.262 85.768 244.55 87.208ZM233.366 87.208C233.366 88.12 233.55 88.928 233.918 89.632C234.302 90.32 234.822 90.864 235.478 91.264C236.134 91.648 236.886 91.84 237.734 91.84C238.598 91.84 239.398 91.648 240.134 91.264C240.87 90.864 241.518 90.32 242.078 89.632C242.654 88.928 243.11 88.12 243.446 87.208C243.11 86.296 242.654 85.496 242.078 84.808C241.518 84.104 240.87 83.56 240.134 83.176C239.398 82.776 238.598 82.576 237.734 82.576C236.886 82.576 236.134 82.776 235.478 83.176C234.822 83.56 234.302 84.104 233.918 84.808C233.55 85.496 233.366 86.296 233.366 87.208ZM250.432 82.816V81.4L253.336 80.656L254.632 76.864H256.456V80.416H262.768V82.816H256.456V88.696C256.456 89.832 256.696 90.632 257.176 91.096C257.672 91.544 258.472 91.768 259.576 91.768C260.28 91.768 260.904 91.696 261.448 91.552C261.992 91.392 262.512 91.168 263.008 90.88V93.448C262.592 93.656 262 93.856 261.232 94.048C260.48 94.24 259.704 94.336 258.904 94.336C257.576 94.336 256.504 94.12 255.688 93.688C254.872 93.24 254.272 92.632 253.888 91.864C253.52 91.08 253.336 90.184 253.336 89.176V82.816H250.432ZM279.691 94L279.163 88.96L279.787 87.208L279.163 85.48L279.691 80.416H282.907L282.187 87.208L282.907 94H279.691ZM280.651 87.208C280.347 88.632 279.843 89.88 279.139 90.952C278.435 92.024 277.563 92.856 276.523 93.448C275.499 94.04 274.355 94.336 273.091 94.336C271.763 94.336 270.587 94.04 269.563 93.448C268.539 92.84 267.739 92 267.163 90.928C266.587 89.856 266.299 88.616 266.299 87.208C266.299 85.784 266.587 84.544 267.163 83.488C267.739 82.416 268.539 81.584 269.563 80.992C270.587 80.384 271.763 80.08 273.091 80.08C274.355 80.08 275.499 80.376 276.523 80.968C277.563 81.56 278.435 82.392 279.139 83.464C279.859 84.52 280.363 85.768 280.651 87.208ZM269.467 87.208C269.467 88.12 269.651 88.928 270.019 89.632C270.403 90.32 270.923 90.864 271.579 91.264C272.235 91.648 272.987 91.84 273.835 91.84C274.699 91.84 275.499 91.648 276.235 91.264C276.971 90.864 277.619 90.32 278.179 89.632C278.755 88.928 279.211 88.12 279.547 87.208C279.211 86.296 278.755 85.496 278.179 84.808C277.619 84.104 276.971 83.56 276.235 83.176C275.499 82.776 274.699 82.576 273.835 82.576C272.987 82.576 272.235 82.776 271.579 83.176C270.923 83.56 270.403 84.104 270.019 84.808C269.651 85.496 269.467 86.296 269.467 87.208ZM287.421 80.416H290.541L291.357 85.36V94H288.237V84.76L287.421 80.416ZM298.245 80.32V83.056C297.893 82.96 297.509 82.888 297.093 82.84C296.677 82.792 296.285 82.768 295.917 82.768C295.037 82.768 294.253 82.96 293.565 83.344C292.877 83.728 292.333 84.304 291.933 85.072C291.549 85.824 291.357 86.752 291.357 87.856L290.637 86.968C290.701 86.008 290.861 85.112 291.117 84.28C291.389 83.432 291.757 82.696 292.221 82.072C292.701 81.448 293.285 80.96 293.973 80.608C294.661 80.256 295.461 80.08 296.373 80.08C296.693 80.08 297.021 80.104 297.357 80.152C297.693 80.184 297.989 80.24 298.245 80.32ZM302.37 80.32L303.93 80.608L305.49 80.32V94H302.37V80.32ZM305.034 74.824H308.154L305.106 78.952H302.106L305.034 74.824ZM310.304 80.416H313.424L314.24 85.312V94H311.12V84.856L310.304 80.416ZM319.64 80.08C320.92 80.08 322.008 80.336 322.904 80.848C323.8 81.36 324.48 82.096 324.944 83.056C325.424 84 325.664 85.144 325.664 86.488V94H322.544V86.992C322.544 85.568 322.208 84.496 321.536 83.776C320.88 83.04 319.912 82.672 318.632 82.672C317.752 82.672 316.976 82.872 316.304 83.272C315.648 83.656 315.136 84.2 314.768 84.904C314.416 85.608 314.24 86.432 314.24 87.376L313.136 86.776C313.28 85.368 313.648 84.168 314.24 83.176C314.832 82.184 315.592 81.424 316.52 80.896C317.448 80.352 318.488 80.08 319.64 80.08ZM343.62 94L343.092 88.96L343.716 87.208L343.092 85.48L343.62 80.416H346.836L346.116 87.208L346.836 94H343.62ZM344.58 87.208C344.276 88.632 343.772 89.88 343.068 90.952C342.364 92.024 341.492 92.856 340.452 93.448C339.428 94.04 338.284 94.336 337.02 94.336C335.692 94.336 334.516 94.04 333.492 93.448C332.468 92.84 331.668 92 331.092 90.928C330.516 89.856 330.228 88.616 330.228 87.208C330.228 85.784 330.516 84.544 331.092 83.488C331.668 82.416 332.468 81.584 333.492 80.992C334.516 80.384 335.692 80.08 337.02 80.08C338.284 80.08 339.428 80.376 340.452 80.968C341.492 81.56 342.364 82.392 343.068 83.464C343.788 84.52 344.292 85.768 344.58 87.208ZM333.396 87.208C333.396 88.12 333.58 88.928 333.948 89.632C334.332 90.32 334.852 90.864 335.508 91.264C336.164 91.648 336.916 91.84 337.764 91.84C338.628 91.84 339.428 91.648 340.164 91.264C340.9 90.864 341.548 90.32 342.108 89.632C342.684 88.928 343.14 88.12 343.476 87.208C343.14 86.296 342.684 85.496 342.108 84.808C341.548 84.104 340.9 83.56 340.164 83.176C339.428 82.776 338.628 82.576 337.764 82.576C336.916 82.576 336.164 82.776 335.508 83.176C334.852 83.56 334.332 84.104 333.948 84.808C333.58 85.496 333.396 86.296 333.396 87.208Z" fill="#141414"/>
<path d="M360.534 94V76H365.478V90.04L364.158 89.008L374.358 76H379.614L365.022 94H360.534ZM369.126 85.408L372.774 82.384L379.854 94H374.214L369.126 85.408ZM390.206 94.384C388.446 94.384 386.91 94.088 385.598 93.496C384.286 92.888 383.262 92.04 382.526 90.952C381.79 89.848 381.422 88.584 381.422 87.16C381.422 85.704 381.79 84.432 382.526 83.344C383.262 82.256 384.286 81.408 385.598 80.8C386.91 80.192 388.446 79.888 390.206 79.888C391.95 79.888 393.478 80.192 394.79 80.8C396.118 81.408 397.15 82.256 397.886 83.344C398.622 84.432 398.99 85.704 398.99 87.16C398.99 88.584 398.622 89.848 397.886 90.952C397.15 92.04 396.118 92.888 394.79 93.496C393.478 94.088 391.95 94.384 390.206 94.384ZM390.206 90.76C391.006 90.76 391.686 90.616 392.246 90.328C392.822 90.04 393.262 89.624 393.566 89.08C393.87 88.536 394.022 87.896 394.022 87.16C394.022 86.392 393.87 85.744 393.566 85.216C393.262 84.672 392.822 84.256 392.246 83.968C391.686 83.68 391.006 83.536 390.206 83.536C389.406 83.536 388.718 83.68 388.142 83.968C387.566 84.256 387.126 84.672 386.822 85.216C386.518 85.744 386.366 86.384 386.366 87.136C386.366 87.888 386.518 88.536 386.822 89.08C387.126 89.624 387.566 90.04 388.142 90.328C388.718 90.616 389.406 90.76 390.206 90.76ZM402.472 80.296H407.464L408.28 85.192V94H403.384V84.904L402.472 80.296ZM414.712 80.08V84.256C414.232 84.16 413.776 84.096 413.344 84.064C412.928 84.016 412.544 83.992 412.192 83.992C411.488 83.992 410.84 84.136 410.248 84.424C409.656 84.696 409.176 85.152 408.808 85.792C408.456 86.432 408.28 87.288 408.28 88.36L407.344 87.208C407.472 86.216 407.664 85.288 407.92 84.424C408.176 83.544 408.52 82.768 408.952 82.096C409.4 81.408 409.952 80.872 410.608 80.488C411.264 80.088 412.064 79.888 413.008 79.888C413.28 79.888 413.56 79.904 413.848 79.936C414.136 79.968 414.424 80.016 414.712 80.08ZM426.21 94.384C424.546 94.384 423.058 94.08 421.746 93.472C420.45 92.864 419.426 92.016 418.674 90.928C417.922 89.824 417.546 88.544 417.546 87.088C417.546 85.664 417.906 84.416 418.626 83.344C419.346 82.256 420.33 81.408 421.578 80.8C422.842 80.192 424.266 79.888 425.85 79.888C427.498 79.888 428.898 80.248 430.05 80.968C431.218 81.672 432.114 82.672 432.738 83.968C433.378 85.264 433.698 86.792 433.698 88.552H421.506V85.6H430.938L429.33 86.632C429.266 85.928 429.09 85.336 428.802 84.856C428.514 84.36 428.13 83.984 427.65 83.728C427.186 83.472 426.626 83.344 425.97 83.344C425.25 83.344 424.634 83.488 424.122 83.776C423.61 84.064 423.21 84.464 422.922 84.976C422.634 85.472 422.49 86.056 422.49 86.728C422.49 87.592 422.682 88.328 423.066 88.936C423.466 89.528 424.042 89.984 424.794 90.304C425.562 90.624 426.498 90.784 427.602 90.784C428.61 90.784 429.61 90.656 430.602 90.4C431.61 90.128 432.522 89.752 433.338 89.272V92.392C432.394 93.032 431.314 93.528 430.098 93.88C428.898 94.216 427.602 94.384 426.21 94.384ZM454.299 88.216C454.171 89.448 453.723 90.528 452.955 91.456C452.187 92.384 451.187 93.104 449.955 93.616C448.739 94.128 447.371 94.384 445.851 94.384C444.171 94.384 442.691 94.08 441.411 93.472C440.131 92.864 439.131 92.016 438.411 90.928C437.691 89.84 437.331 88.584 437.331 87.16C437.331 85.72 437.691 84.456 438.411 83.368C439.131 82.28 440.131 81.432 441.411 80.824C442.691 80.2 444.171 79.888 445.851 79.888C447.371 79.888 448.739 80.152 449.955 80.68C451.187 81.192 452.187 81.912 452.955 82.84C453.723 83.752 454.171 84.832 454.299 86.08H449.427C449.251 85.264 448.843 84.64 448.203 84.208C447.563 83.76 446.779 83.536 445.851 83.536C445.131 83.536 444.499 83.68 443.955 83.968C443.427 84.24 443.011 84.648 442.707 85.192C442.419 85.72 442.275 86.376 442.275 87.16C442.275 87.928 442.419 88.584 442.707 89.128C443.011 89.656 443.427 90.064 443.955 90.352C444.499 90.624 445.131 90.76 445.851 90.76C446.779 90.76 447.563 90.528 448.203 90.064C448.859 89.6 449.267 88.984 449.427 88.216H454.299ZM448.419 78.952H443.379L439.947 74.416H443.835L447.027 77.752H444.771L447.963 74.416H451.851L448.419 78.952ZM463.317 90.088L461.973 89.632L469.557 80.296H474.717L462.789 94H458.397V75.52H463.317V90.088ZM465.645 87.304L469.341 84.712L475.077 94H469.557L465.645 87.304ZM485.685 94.384C483.925 94.384 482.389 94.088 481.077 93.496C479.765 92.888 478.741 92.04 478.005 90.952C477.269 89.848 476.901 88.584 476.901 87.16C476.901 85.704 477.269 84.432 478.005 83.344C478.741 82.256 479.765 81.408 481.077 80.8C482.389 80.192 483.925 79.888 485.685 79.888C487.429 79.888 488.957 80.192 490.269 80.8C491.597 81.408 492.629 82.256 493.365 83.344C494.101 84.432 494.469 85.704 494.469 87.16C494.469 88.584 494.101 89.848 493.365 90.952C492.629 92.04 491.597 92.888 490.269 93.496C488.957 94.088 487.429 94.384 485.685 94.384ZM485.685 90.76C486.485 90.76 487.165 90.616 487.725 90.328C488.301 90.04 488.741 89.624 489.045 89.08C489.349 88.536 489.501 87.896 489.501 87.16C489.501 86.392 489.349 85.744 489.045 85.216C488.741 84.672 488.301 84.256 487.725 83.968C487.165 83.68 486.485 83.536 485.685 83.536C484.885 83.536 484.197 83.68 483.621 83.968C483.045 84.256 482.605 84.672 482.301 85.216C481.997 85.744 481.845 86.384 481.845 87.136C481.845 87.888 481.997 88.536 482.301 89.08C482.605 89.624 483.045 90.04 483.621 90.328C484.197 90.616 484.885 90.76 485.685 90.76ZM506.657 91.672L504.977 91.648L509.729 80.296H514.961L508.553 94H502.961L496.553 80.296H501.977L506.657 91.672ZM530.112 94L529.488 89.056L530.136 87.16L529.488 85.264L530.112 80.296H535.2L534.336 87.136L535.2 94H530.112ZM531.264 87.16C531.04 88.6 530.592 89.864 529.92 90.952C529.264 92.04 528.424 92.888 527.4 93.496C526.392 94.088 525.24 94.384 523.944 94.384C522.6 94.384 521.416 94.088 520.392 93.496C519.384 92.888 518.592 92.04 518.016 90.952C517.44 89.848 517.152 88.584 517.152 87.16C517.152 85.704 517.44 84.432 518.016 83.344C518.592 82.256 519.384 81.408 520.392 80.8C521.416 80.192 522.6 79.888 523.944 79.888C525.24 79.888 526.392 80.192 527.4 80.8C528.424 81.392 529.272 82.232 529.944 83.32C530.616 84.392 531.056 85.672 531.264 87.16ZM522.12 87.16C522.12 87.832 522.256 88.432 522.528 88.96C522.816 89.488 523.208 89.904 523.704 90.208C524.2 90.496 524.768 90.64 525.408 90.64C526.08 90.64 526.712 90.496 527.304 90.208C527.896 89.904 528.416 89.488 528.864 88.96C529.312 88.432 529.648 87.832 529.872 87.16C529.648 86.472 529.312 85.864 528.864 85.336C528.416 84.808 527.896 84.392 527.304 84.088C526.712 83.784 526.08 83.632 525.408 83.632C524.768 83.632 524.2 83.784 523.704 84.088C523.208 84.392 522.816 84.808 522.528 85.336C522.256 85.864 522.12 86.472 522.12 87.16ZM526.584 74.416H531.336L528.096 78.952H523.56L526.584 74.416Z" fill="#EEB6F7"/>
<rect x="202.848" y="67.1431" width="348.944" height="35.187" stroke="#0071C2"/>
<rect x="200.113" y="98.0023" width="7.17987" height="7.17987" fill="white" stroke="#0071C2"/>
<rect x="547.32" y="98.4321" width="7.17987" height="7.17987" fill="white" stroke="#0071C2"/>
<rect x="199.5" y="63.5" width="7.17987" height="7.17987" fill="white" stroke="#0071C2"/>
<rect x="547.286" y="64.4661" width="7.17987" height="7.17987" fill="white" stroke="#0071C2"/>
<path d="M539.809 97.398H546.653C547.18 97.398 547.461 97.1405 547.461 96.707C547.461 96.2615 547.18 96.027 546.653 96.027H544.016V74.359H546.653C547.18 74.359 547.461 74.113 547.461 73.6675C547.461 73.234 547.18 73 546.653 73H539.809C539.27 73 539 73.234 539 73.668C539 74.113 539.27 74.359 539.809 74.359H542.434V96.027H539.809C539.27 96.027 539 96.2615 539 96.707C539 97.1405 539.27 97.398 539.809 97.398Z" fill="#141414"/>
<defs>
<clipPath id="clip0_4_51">
<rect x="582.293" y="157.795" width="72" height="70" rx="35" transform="rotate(45 582.293 157.795)" fill="white"/>
</clipPath>
</defs>
</svg>
