<svg width="778" height="339" viewBox="0 0 778 339" fill="none" xmlns="http://www.w3.org/2000/svg">
<rect x="1" y="21" width="757" height="317" rx="19" fill="white" stroke="#141414" stroke-width="2"/>
<ellipse cx="16.5326" cy="33.5155" rx="3.53264" ry="3.51548" fill="#FF6666"/>
<ellipse cx="26.424" cy="33.5155" rx="3.53264" ry="3.51548" fill="#FFED66"/>
<ellipse cx="36.3156" cy="33.5155" rx="3.53264" ry="3.51548" fill="#93E262"/>
<rect x="20" y="1" width="757" height="317" rx="19" fill="white" stroke="#141414" stroke-width="2"/>
<ellipse cx="35.5326" cy="13.5155" rx="3.53264" ry="3.51548" fill="#FF6666"/>
<ellipse cx="45.424" cy="13.5155" rx="3.53264" ry="3.51548" fill="#FFED66"/>
<ellipse cx="55.3156" cy="13.5155" rx="3.53264" ry="3.51548" fill="#93E262"/>
<path d="M141.257 126C147.273 126 152.457 127.024 156.809 129.072C161.225 131.12 164.585 134.032 166.889 137.808C169.193 141.52 170.345 145.872 170.345 150.864C170.345 155.792 169.193 160.144 166.889 163.92C164.585 167.632 161.225 170.512 156.809 172.56C152.457 174.608 147.273 175.632 141.257 175.632H110.057V159.696H140.009C143.209 159.696 145.705 158.928 147.497 157.392C149.289 155.792 150.185 153.616 150.185 150.864C150.185 148.048 149.289 145.872 147.497 144.336C145.705 142.736 143.209 141.936 140.009 141.936H111.785L120.713 132.72V198H100.841V126H141.257ZM278.183 143.184H298.151L301.415 162.768V198H281.831V161.616L278.183 143.184ZM327.143 142.32V159.024C325.223 158.64 323.399 158.384 321.671 158.256C320.007 158.064 318.471 157.968 317.063 157.968C314.247 157.968 311.655 158.544 309.287 159.696C306.919 160.784 304.999 162.608 303.527 165.168C302.119 167.728 301.415 171.152 301.415 175.44L297.671 170.832C298.183 166.864 298.951 163.152 299.975 159.696C300.999 156.176 302.375 153.072 304.103 150.384C305.895 147.632 308.103 145.488 310.727 143.952C313.351 142.352 316.551 141.552 320.327 141.552C321.415 141.552 322.535 141.616 323.687 141.744C324.839 141.872 325.991 142.064 327.143 142.32ZM338.147 157.68V149.136L349.283 144.624L357.731 128.4H368.867V143.184H391.907V157.68H368.867V173.808C368.867 177.776 369.667 180.56 371.267 182.16C372.867 183.76 375.779 184.56 380.003 184.56C382.691 184.56 385.059 184.336 387.107 183.888C389.219 183.376 391.139 182.736 392.867 181.968V196.752C390.947 197.456 388.419 198.096 385.283 198.672C382.147 199.248 378.915 199.536 375.587 199.536C369.507 199.536 364.515 198.608 360.611 196.752C356.771 194.896 353.923 192.24 352.067 188.784C350.211 185.264 349.283 181.168 349.283 176.496V157.68H338.147ZM506.975 199.536C499.935 199.536 493.791 198.352 488.543 195.984C483.295 193.552 479.199 190.16 476.255 185.808C473.311 181.392 471.839 176.336 471.839 170.64C471.839 164.816 473.311 159.728 476.255 155.376C479.199 151.024 483.295 147.632 488.543 145.2C493.791 142.768 499.935 141.552 506.975 141.552C513.951 141.552 520.063 142.768 525.311 145.2C530.623 147.632 534.751 151.024 537.695 155.376C540.639 159.728 542.111 164.816 542.111 170.64C542.111 176.336 540.639 181.392 537.695 185.808C534.751 190.16 530.623 193.552 525.311 195.984C520.063 198.352 513.951 199.536 506.975 199.536ZM506.975 185.04C510.175 185.04 512.895 184.464 515.135 183.312C517.439 182.16 519.199 180.496 520.415 178.32C521.631 176.144 522.239 173.584 522.239 170.64C522.239 167.568 521.631 164.976 520.415 162.864C519.199 160.688 517.439 159.024 515.135 157.872C512.895 156.72 510.175 156.144 506.975 156.144C503.775 156.144 501.023 156.72 498.719 157.872C496.415 159.024 494.655 160.688 493.439 162.864C492.223 164.976 491.615 167.536 491.615 170.544C491.615 173.552 492.223 176.144 493.439 178.32C494.655 180.496 496.415 182.16 498.719 183.312C501.023 184.464 503.775 185.04 506.975 185.04ZM559.007 124.08H578.687V198H559.007V124.08ZM598.115 142.32L608.003 144.24L617.795 142.32V198H598.115V142.32ZM607.907 137.808C604.515 137.808 601.763 136.976 599.651 135.312C597.539 133.584 596.483 131.248 596.483 128.304C596.483 125.424 597.539 123.12 599.651 121.392C601.763 119.664 604.515 118.8 607.907 118.8C611.427 118.8 614.211 119.664 616.259 121.392C618.371 123.12 619.427 125.424 619.427 128.304C619.427 131.248 618.371 133.584 616.259 135.312C614.211 136.976 611.427 137.808 607.907 137.808ZM669.864 199.536C662.824 199.536 656.68 198.352 651.432 195.984C646.184 193.552 642.088 190.16 639.144 185.808C636.2 181.392 634.728 176.336 634.728 170.64C634.728 164.816 636.2 159.728 639.144 155.376C642.088 151.024 646.184 147.632 651.432 145.2C656.68 142.768 662.824 141.552 669.864 141.552C676.84 141.552 682.952 142.768 688.2 145.2C693.512 147.632 697.64 151.024 700.584 155.376C703.528 159.728 705 164.816 705 170.64C705 176.336 703.528 181.392 700.584 185.808C697.64 190.16 693.512 193.552 688.2 195.984C682.952 198.352 676.84 199.536 669.864 199.536ZM669.864 185.04C673.064 185.04 675.784 184.464 678.024 183.312C680.328 182.16 682.088 180.496 683.304 178.32C684.52 176.144 685.128 173.584 685.128 170.64C685.128 167.568 684.52 164.976 683.304 162.864C682.088 160.688 680.328 159.024 678.024 157.872C675.784 156.72 673.064 156.144 669.864 156.144C666.664 156.144 663.912 156.72 661.608 157.872C659.304 159.024 657.544 160.688 656.328 162.864C655.112 164.976 654.504 167.536 654.504 170.544C654.504 173.552 655.112 176.144 656.328 178.32C657.544 180.496 659.304 182.16 661.608 183.312C663.912 184.464 666.664 185.04 669.864 185.04Z" fill="#141414"/>
<path d="M391.4 223.9C387.8 223.9 384.74 222.4 382.22 219.4C379.7 216.4 378.38 213.16 378.26 209.68C378.62 208.24 379.16 207.52 379.88 207.52C380.6 207.52 381.02 208.42 381.14 210.22C381.26 212.14 382.22 214 384.02 215.8C385.82 217.6 387.62 218.5 389.42 218.5C399.62 218.5 408.92 212.2 417.32 199.6C419.6 196.24 422.42 191.38 425.78 185.02C429.14 178.54 432.86 170.44 436.94 160.72L446.66 137.32C434.66 137.2 428.66 135.76 428.66 133C428.66 131.68 429.26 130.66 430.46 129.94C431.66 129.1 432.62 128.68 433.34 128.68C433.46 128.68 434.96 128.74 437.84 128.86C440.72 128.86 444.86 128.92 450.26 129.04C462.02 102.88 472.82 89.8 482.66 89.8C486.5 89.8 490.28 91.6 494 95.2C494.96 96.16 495.44 97.42 495.44 98.98C495.44 102.7 494.36 104.56 492.2 104.56C491.6 104.56 491 104.08 490.4 103.12C489.92 102.28 489.14 101.62 488.06 101.14C486.98 100.54 485.96 100.24 485 100.24C481.4 100.24 478.22 101.62 475.46 104.38C472.82 107.02 470.3 110.5 467.9 114.82C465.62 119.14 463.16 123.88 460.52 129.04H462.68C475.76 129.04 484.46 128.86 488.78 128.5C489.26 128.62 489.5 128.86 489.5 129.22C489.5 130.18 485.24 131.5 476.72 133.18C473.36 133.66 470.06 134.2 466.82 134.8C463.58 135.4 460.28 136 456.92 136.6C455.36 139.96 453.44 143.98 451.16 148.66C448.88 153.22 446.3 158.32 443.42 163.96C437.78 174.52 433.16 182.92 429.56 189.16C425.96 195.4 423.44 199.54 422 201.58C411.56 216.46 401.36 223.9 391.4 223.9Z" fill="#EEB6F7"/>
<g clip-path="url(#clip0_13_171)">
<line x1="219.656" y1="133.177" x2="170.158" y2="182.674" stroke="#0071C2" stroke-width="0.5"/>
<line x1="221.156" y1="134.678" x2="171.659" y2="184.175" stroke="#0071C2" stroke-width="0.5"/>
<line x1="222.657" y1="136.178" x2="173.16" y2="185.676" stroke="#0071C2" stroke-width="0.5"/>
<line x1="224.158" y1="137.679" x2="174.661" y2="187.177" stroke="#0071C2" stroke-width="0.5"/>
<line x1="225.659" y1="139.18" x2="176.161" y2="188.678" stroke="#0071C2" stroke-width="0.5"/>
<line x1="227.16" y1="140.681" x2="177.662" y2="190.179" stroke="#0071C2" stroke-width="0.5"/>
<line x1="228.661" y1="142.182" x2="179.163" y2="191.679" stroke="#0071C2" stroke-width="0.5"/>
<line x1="230.161" y1="143.683" x2="180.664" y2="193.18" stroke="#0071C2" stroke-width="0.5"/>
<line x1="231.662" y1="145.183" x2="182.165" y2="194.681" stroke="#0071C2" stroke-width="0.5"/>
<line x1="233.163" y1="146.684" x2="183.666" y2="196.182" stroke="#0071C2" stroke-width="0.5"/>
<line x1="234.664" y1="148.185" x2="185.167" y2="197.683" stroke="#0071C2" stroke-width="0.5"/>
<line x1="236.165" y1="149.686" x2="186.667" y2="199.184" stroke="#0071C2" stroke-width="0.5"/>
<line x1="237.666" y1="151.187" x2="188.168" y2="200.684" stroke="#0071C2" stroke-width="0.5"/>
<line x1="239.167" y1="152.688" x2="189.669" y2="202.185" stroke="#0071C2" stroke-width="0.5"/>
<line x1="240.667" y1="154.189" x2="191.17" y2="203.686" stroke="#0071C2" stroke-width="0.5"/>
<line x1="242.168" y1="155.689" x2="192.671" y2="205.187" stroke="#0071C2" stroke-width="0.5"/>
<line x1="243.669" y1="157.19" x2="194.171" y2="206.688" stroke="#0071C2" stroke-width="0.5"/>
<line x1="245.17" y1="158.691" x2="195.672" y2="208.189" stroke="#0071C2" stroke-width="0.5"/>
<line x1="246.671" y1="160.192" x2="197.173" y2="209.689" stroke="#0071C2" stroke-width="0.5"/>
<line x1="248.172" y1="161.693" x2="198.674" y2="211.19" stroke="#0071C2" stroke-width="0.5"/>
<line x1="249.672" y1="163.194" x2="200.175" y2="212.691" stroke="#0071C2" stroke-width="0.5"/>
<line x1="251.173" y1="164.694" x2="201.676" y2="214.192" stroke="#0071C2" stroke-width="0.5"/>
<line x1="252.674" y1="166.195" x2="203.177" y2="215.693" stroke="#0071C2" stroke-width="0.5"/>
<line x1="254.175" y1="167.696" x2="204.677" y2="217.194" stroke="#0071C2" stroke-width="0.5"/>
<line x1="255.676" y1="169.197" x2="206.178" y2="218.695" stroke="#0071C2" stroke-width="0.5"/>
<line x1="257.177" y1="170.698" x2="207.679" y2="220.195" stroke="#0071C2" stroke-width="0.5"/>
</g>
<path d="M220.5 142.5C235.411 142.5 247.5 154.588 247.5 169.5C247.5 184.411 235.411 196.5 220.5 196.5C205.588 196.5 193.5 184.411 193.5 169.5C193.5 154.588 205.588 142.5 220.5 142.5Z" stroke="#141414" stroke-width="5"/>
<path d="M220.5 138.5C222.047 138.5 223.5 139.521 223.5 141C223.5 142.479 222.047 143.5 220.5 143.5C218.953 143.5 217.5 142.479 217.5 141C217.5 139.521 218.953 138.5 220.5 138.5Z" fill="white" stroke="#0071C2"/>
<path d="M251.887 140L249 137.113L246.113 140L249 142.887L251.887 140ZM222 140V140.5H249V140V139.5H222V140Z" fill="#0071C2"/>
<path d="M188.113 140L191 137.113L193.887 140L191 142.887L188.113 140ZM218 140V140.5H191V140V139.5H218V140Z" fill="#0071C2"/>
<path d="M220.5 196.5C222.047 196.5 223.5 197.521 223.5 199C223.5 200.479 222.047 201.5 220.5 201.5C218.953 201.5 217.5 200.479 217.5 199C217.5 197.521 218.953 196.5 220.5 196.5Z" fill="white" stroke="#0071C2"/>
<path d="M251.887 199L249 196.113L246.113 199L249 201.887L251.887 199ZM222 199V199.5H249V199V198.5H222V199Z" fill="#0071C2"/>
<path d="M188.113 199L191 196.113L193.887 199L191 201.887L188.113 199ZM218 199V199.5H191V199V198.5H218V199Z" fill="#0071C2"/>
<path d="M505.959 111.863L510.572 116.477C510.843 116.747 511.028 117.091 511.105 117.465C511.182 117.84 511.147 118.229 511.005 118.584L508.696 124.358C508.566 124.681 508.352 124.964 508.077 125.177C507.801 125.389 507.474 125.525 507.128 125.569L502.168 126.189C502.041 126.204 501.907 126.222 501.768 126.243L501.334 126.314L501.108 126.355L500.402 126.491L499.919 126.594L499.191 126.758L498.258 126.981L496.743 127.367L496.112 127.537C495.953 127.581 495.785 127.584 495.624 127.546C495.464 127.508 495.315 127.431 495.192 127.321C495.069 127.21 494.976 127.071 494.921 126.916C494.866 126.76 494.851 126.593 494.877 126.43L494.91 126.287L495.198 125.201L495.456 124.178L495.678 123.245L495.842 122.518L495.944 122.034L496.082 121.329L496.16 120.882L496.222 120.464L496.867 115.308C496.911 114.963 497.046 114.635 497.259 114.36C497.472 114.084 497.755 113.87 498.079 113.741L503.853 111.431C504.208 111.29 504.597 111.255 504.971 111.332C505.345 111.409 505.689 111.593 505.959 111.863ZM502.336 117.337C502.09 117.583 501.914 117.892 501.827 118.23C501.739 118.568 501.745 118.923 501.841 119.258C501.77 119.3 501.704 119.351 501.646 119.409L497.683 123.371C497.657 123.398 497.639 123.431 497.632 123.467L497.545 123.843L497.371 124.569L497.287 124.911C497.278 124.944 497.278 124.979 497.287 125.012C497.296 125.045 497.314 125.075 497.338 125.099C497.362 125.123 497.392 125.14 497.425 125.149C497.457 125.158 497.492 125.158 497.525 125.15L498.225 124.979L498.97 124.805C499.006 124.797 499.039 124.778 499.065 124.752L503.028 120.79C503.086 120.731 503.136 120.666 503.178 120.595C503.509 120.69 503.859 120.696 504.193 120.612C504.527 120.529 504.833 120.358 505.08 120.118C505.326 119.878 505.505 119.577 505.598 119.245C505.691 118.914 505.695 118.564 505.609 118.23C505.523 117.897 505.35 117.592 505.109 117.347C504.867 117.102 504.565 116.925 504.232 116.834C503.9 116.743 503.55 116.742 503.217 116.83C502.884 116.919 502.581 117.093 502.337 117.337H502.336ZM506.885 110.028C507.053 109.86 507.277 109.759 507.514 109.744C507.751 109.729 507.986 109.801 508.174 109.946L508.266 110.028L512.409 114.171C512.586 114.346 512.69 114.582 512.698 114.831C512.706 115.08 512.619 115.323 512.455 115.51C512.29 115.697 512.06 115.814 511.812 115.837C511.564 115.86 511.316 115.787 511.12 115.633L511.027 115.551L506.885 111.409C506.702 111.226 506.599 110.978 506.599 110.719C506.599 110.46 506.702 110.211 506.885 110.028Z" fill="#EEB6F7"/>
<path d="M386.811 42.6555C388.295 41.1555 389.217 39.1244 389.217 36.8588C389.217 34.6833 388.353 32.5969 386.815 31.0586C385.276 29.5203 383.19 28.656 381.015 28.656C378.28 28.656 375.858 29.9841 374.374 32.0465C373.617 30.9942 372.619 30.1377 371.464 29.5481C370.309 28.9584 369.03 28.6526 367.734 28.656C365.558 28.656 363.472 29.5203 361.934 31.0586C360.395 32.5969 359.531 34.6833 359.531 36.8588C359.531 39.1244 360.453 41.1555 361.937 42.6555L374.374 55.0925L386.811 42.6555Z" fill="#FDFBD5"/>
<path d="M363.031 41.5461C362.413 40.9325 361.924 40.202 361.591 39.3972C361.258 38.5925 361.089 37.7296 361.093 36.8588C361.093 35.0977 361.793 33.4087 363.038 32.1634C364.284 30.9181 365.973 30.2185 367.734 30.2185C370.202 30.2185 372.359 31.5622 373.499 33.5621H375.249C375.829 32.545 376.668 31.6998 377.681 31.1125C378.693 30.5251 379.844 30.2167 381.015 30.2185C382.776 30.2185 384.465 30.9181 385.71 32.1634C386.955 33.4087 387.655 35.0977 387.655 36.8588C387.655 38.6869 386.874 40.3743 385.717 41.5461L374.374 52.8738L363.031 41.5461ZM386.811 42.6555C388.295 41.1555 389.217 39.1244 389.217 36.8588C389.217 34.6833 388.353 32.5969 386.815 31.0586C385.276 29.5203 383.19 28.656 381.015 28.656C378.28 28.656 375.858 29.9841 374.374 32.0465C373.617 30.9942 372.619 30.1377 371.464 29.5481C370.309 28.9584 369.03 28.6526 367.734 28.656C365.558 28.656 363.472 29.5203 361.934 31.0586C360.395 32.5969 359.531 34.6833 359.531 36.8588C359.531 39.1244 360.453 41.1555 361.937 42.6555L374.374 55.0925L386.811 42.6555Z" fill="#141414"/>
<rect x="355.5" y="58.9985" width="1.81239" height="1.81239" fill="white" stroke="#0071C2"/>
<rect x="355.906" y="21.9062" width="38.4985" height="38.4985" stroke="#0071C2"/>
<rect x="392.999" y="58.9985" width="1.81239" height="1.81239" fill="white" stroke="#0071C2"/>
<rect x="355.5" y="21.5" width="1.81239" height="1.81239" fill="white" stroke="#0071C2"/>
<rect x="392.999" y="21.5" width="1.81239" height="1.81239" fill="white" stroke="#0071C2"/>
<rect x="82.5127" y="245.106" width="186.658" height="34.7146" stroke="#0071C2"/>
<rect x="80.124" y="276.027" width="4.93373" height="4.93373" fill="white" stroke="#0071C2"/>
<rect x="266.566" y="276.027" width="4.93373" height="4.93373" fill="white" stroke="#0071C2"/>
<rect x="79.5" y="243.5" width="4.93373" height="4.93373" fill="white" stroke="#0071C2"/>
<rect x="265.942" y="243.5" width="4.93373" height="4.93373" fill="white" stroke="#0071C2"/>
<rect x="85.3987" y="247.527" width="181.869" height="29.8739" rx="7.5" fill="#FFB985" stroke="#141414"/>
<path d="M107.75 262.125C107.72 262.805 107.58 263.455 107.33 264.075C107.09 264.685 106.735 265.23 106.265 265.71C105.805 266.19 105.225 266.565 104.525 266.835C103.835 267.105 103.03 267.24 102.11 267.24C101.23 267.24 100.405 267.115 99.6351 266.865C98.8651 266.605 98.1851 266.225 97.5951 265.725C97.0151 265.225 96.5601 264.61 96.2301 263.88C95.9101 263.15 95.7501 262.315 95.7501 261.375C95.7501 260.435 95.9151 259.6 96.2451 258.87C96.5751 258.14 97.0351 257.525 97.6251 257.025C98.2251 256.525 98.9151 256.15 99.6951 255.9C100.485 255.64 101.345 255.51 102.275 255.51C103.515 255.51 104.585 255.7 105.485 256.08C106.385 256.46 107.11 256.98 107.66 257.64C108.21 258.3 108.565 259.065 108.725 259.935H105.59C105.49 259.555 105.285 259.23 104.975 258.96C104.675 258.68 104.295 258.47 103.835 258.33C103.385 258.18 102.87 258.105 102.29 258.105C101.59 258.105 100.985 258.23 100.475 258.48C99.9651 258.72 99.5701 259.085 99.2901 259.575C99.0101 260.055 98.8701 260.655 98.8701 261.375C98.8701 262.105 99.0201 262.72 99.3201 263.22C99.6201 263.72 100.045 264.095 100.595 264.345C101.155 264.595 101.81 264.72 102.56 264.72C103.29 264.72 103.935 264.62 104.495 264.42C105.055 264.21 105.5 263.905 105.83 263.505C106.17 263.105 106.365 262.625 106.415 262.065L107.75 262.125ZM102.86 263.37V261.18H108.83V267H106.625L106.19 262.545L106.775 263.37H102.86ZM111.364 258.435H114.484L114.994 261.495V267H111.934V261.315L111.364 258.435ZM119.014 258.3V260.91C118.714 260.85 118.429 260.81 118.159 260.79C117.899 260.76 117.659 260.745 117.439 260.745C116.999 260.745 116.594 260.835 116.224 261.015C115.854 261.185 115.554 261.47 115.324 261.87C115.104 262.27 114.994 262.805 114.994 263.475L114.409 262.755C114.489 262.135 114.609 261.555 114.769 261.015C114.929 260.465 115.144 259.98 115.414 259.56C115.694 259.13 116.039 258.795 116.449 258.555C116.859 258.305 117.359 258.18 117.949 258.18C118.119 258.18 118.294 258.19 118.474 258.21C118.654 258.23 118.834 258.26 119.014 258.3ZM128.931 267L128.541 263.91L128.946 262.725L128.541 261.54L128.931 258.435H132.111L131.571 262.71L132.111 267H128.931ZM129.651 262.725C129.511 263.625 129.231 264.415 128.811 265.095C128.401 265.775 127.876 266.305 127.236 266.685C126.606 267.055 125.886 267.24 125.076 267.24C124.236 267.24 123.496 267.055 122.856 266.685C122.226 266.305 121.731 265.775 121.371 265.095C121.011 264.405 120.831 263.615 120.831 262.725C120.831 261.815 121.011 261.02 121.371 260.34C121.731 259.66 122.226 259.13 122.856 258.75C123.496 258.37 124.236 258.18 125.076 258.18C125.886 258.18 126.606 258.37 127.236 258.75C127.876 259.12 128.406 259.645 128.826 260.325C129.246 260.995 129.521 261.795 129.651 262.725ZM123.936 262.725C123.936 263.145 124.021 263.52 124.191 263.85C124.371 264.18 124.616 264.44 124.926 264.63C125.236 264.81 125.591 264.9 125.991 264.9C126.411 264.9 126.806 264.81 127.176 264.63C127.546 264.44 127.871 264.18 128.151 263.85C128.431 263.52 128.641 263.145 128.781 262.725C128.641 262.295 128.431 261.915 128.151 261.585C127.871 261.255 127.546 260.995 127.176 260.805C126.806 260.615 126.411 260.52 125.991 260.52C125.591 260.52 125.236 260.615 124.926 260.805C124.616 260.995 124.371 261.255 124.191 261.585C124.021 261.915 123.936 262.295 123.936 262.725ZM134.933 258.435H138.008V260.895L137.873 261.255V263.655L138.008 264.36V269.475H134.933V258.435ZM137.033 262.725C137.163 261.795 137.433 260.995 137.843 260.325C138.263 259.645 138.793 259.12 139.433 258.75C140.073 258.37 140.798 258.18 141.608 258.18C142.448 258.18 143.183 258.37 143.813 258.75C144.453 259.13 144.948 259.66 145.298 260.34C145.658 261.02 145.838 261.815 145.838 262.725C145.838 263.615 145.658 264.405 145.298 265.095C144.948 265.775 144.453 266.305 143.813 266.685C143.183 267.055 142.448 267.24 141.608 267.24C140.798 267.24 140.073 267.055 139.433 266.685C138.793 266.305 138.268 265.775 137.858 265.095C137.448 264.415 137.173 263.625 137.033 262.725ZM142.748 262.725C142.748 262.295 142.658 261.915 142.478 261.585C142.308 261.255 142.063 260.995 141.743 260.805C141.433 260.615 141.078 260.52 140.678 260.52C140.268 260.52 139.878 260.615 139.508 260.805C139.138 260.995 138.813 261.255 138.533 261.585C138.253 261.915 138.038 262.295 137.888 262.725C138.038 263.145 138.253 263.52 138.533 263.85C138.813 264.18 139.138 264.44 139.508 264.63C139.878 264.81 140.268 264.9 140.678 264.9C141.078 264.9 141.433 264.81 141.743 264.63C142.063 264.44 142.308 264.18 142.478 263.85C142.658 263.52 142.748 263.145 142.748 262.725ZM148.515 255.45H151.59V267H148.515V255.45ZM154.725 258.18C155.555 258.18 156.255 258.345 156.825 258.675C157.405 259.005 157.85 259.47 158.16 260.07C158.47 260.67 158.625 261.38 158.625 262.2V267H155.55V262.65C155.55 262.01 155.385 261.52 155.055 261.18C154.735 260.84 154.27 260.67 153.66 260.67C153.24 260.67 152.87 260.76 152.55 260.94C152.24 261.12 152 261.375 151.83 261.705C151.67 262.035 151.59 262.425 151.59 262.875L150.63 262.38C150.75 261.47 151.005 260.705 151.395 260.085C151.785 259.455 152.265 258.98 152.835 258.66C153.415 258.34 154.045 258.18 154.725 258.18ZM161.554 258.3L163.099 258.6L164.629 258.3V267H161.554V258.3ZM163.084 257.595C162.554 257.595 162.124 257.465 161.794 257.205C161.464 256.935 161.299 256.57 161.299 256.11C161.299 255.66 161.464 255.3 161.794 255.03C162.124 254.76 162.554 254.625 163.084 254.625C163.634 254.625 164.069 254.76 164.389 255.03C164.719 255.3 164.884 255.66 164.884 256.11C164.884 256.57 164.719 256.935 164.389 257.205C164.069 257.465 163.634 257.595 163.084 257.595ZM177.88 263.385C177.8 264.155 177.52 264.83 177.04 265.41C176.56 265.99 175.935 266.44 175.165 266.76C174.405 267.08 173.55 267.24 172.6 267.24C171.55 267.24 170.625 267.05 169.825 266.67C169.025 266.29 168.4 265.76 167.95 265.08C167.5 264.4 167.275 263.615 167.275 262.725C167.275 261.825 167.5 261.035 167.95 260.355C168.4 259.675 169.025 259.145 169.825 258.765C170.625 258.375 171.55 258.18 172.6 258.18C173.55 258.18 174.405 258.345 175.165 258.675C175.935 258.995 176.56 259.445 177.04 260.025C177.52 260.595 177.8 261.27 177.88 262.05H174.835C174.725 261.54 174.47 261.15 174.07 260.88C173.67 260.6 173.18 260.46 172.6 260.46C172.15 260.46 171.755 260.55 171.415 260.73C171.085 260.9 170.825 261.155 170.635 261.495C170.455 261.825 170.365 262.235 170.365 262.725C170.365 263.205 170.455 263.615 170.635 263.955C170.825 264.285 171.085 264.54 171.415 264.72C171.755 264.89 172.15 264.975 172.6 264.975C173.18 264.975 173.67 264.83 174.07 264.54C174.48 264.25 174.735 263.865 174.835 263.385H177.88ZM193.311 267L192.906 263.79L193.431 262.74L192.921 261.42L193.641 255.45H196.821L195.936 262.485L196.476 267H193.311ZM193.971 262.725C193.831 263.625 193.551 264.415 193.131 265.095C192.721 265.775 192.196 266.305 191.556 266.685C190.926 267.055 190.206 267.24 189.396 267.24C188.556 267.24 187.816 267.055 187.176 266.685C186.546 266.305 186.051 265.775 185.691 265.095C185.331 264.405 185.151 263.615 185.151 262.725C185.151 261.815 185.331 261.02 185.691 260.34C186.051 259.66 186.546 259.13 187.176 258.75C187.816 258.37 188.556 258.18 189.396 258.18C190.206 258.18 190.926 258.37 191.556 258.75C192.196 259.12 192.726 259.645 193.146 260.325C193.566 260.995 193.841 261.795 193.971 262.725ZM188.256 262.725C188.256 263.145 188.341 263.52 188.511 263.85C188.691 264.18 188.936 264.44 189.246 264.63C189.556 264.81 189.911 264.9 190.311 264.9C190.731 264.9 191.126 264.81 191.496 264.63C191.866 264.44 192.191 264.18 192.471 263.85C192.751 263.52 192.961 263.145 193.101 262.725C192.961 262.295 192.751 261.915 192.471 261.585C192.191 261.255 191.866 260.995 191.496 260.805C191.126 260.615 190.731 260.52 190.311 260.52C189.911 260.52 189.556 260.615 189.246 260.805C188.936 260.995 188.691 261.255 188.511 261.585C188.341 261.915 188.256 262.295 188.256 262.725ZM204.25 267.24C203.21 267.24 202.28 267.05 201.46 266.67C200.65 266.29 200.01 265.76 199.54 265.08C199.07 264.39 198.835 263.59 198.835 262.68C198.835 261.79 199.06 261.01 199.51 260.34C199.96 259.66 200.575 259.13 201.355 258.75C202.145 258.37 203.035 258.18 204.025 258.18C205.055 258.18 205.93 258.405 206.65 258.855C207.38 259.295 207.94 259.92 208.33 260.73C208.73 261.54 208.93 262.495 208.93 263.595H201.31V261.75H207.205L206.2 262.395C206.16 261.955 206.05 261.585 205.87 261.285C205.69 260.975 205.45 260.74 205.15 260.58C204.86 260.42 204.51 260.34 204.1 260.34C203.65 260.34 203.265 260.43 202.945 260.61C202.625 260.79 202.375 261.04 202.195 261.36C202.015 261.67 201.925 262.035 201.925 262.455C201.925 262.995 202.045 263.455 202.285 263.835C202.535 264.205 202.895 264.49 203.365 264.69C203.845 264.89 204.43 264.99 205.12 264.99C205.75 264.99 206.375 264.91 206.995 264.75C207.625 264.58 208.195 264.345 208.705 264.045V265.995C208.115 266.395 207.44 266.705 206.68 266.925C205.93 267.135 205.12 267.24 204.25 267.24ZM221.52 264.21C221.52 264.87 221.32 265.425 220.92 265.875C220.52 266.325 219.95 266.665 219.21 266.895C218.47 267.125 217.58 267.24 216.54 267.24C215.47 267.24 214.53 267.11 213.72 266.85C212.92 266.59 212.295 266.225 211.845 265.755C211.395 265.285 211.155 264.74 211.125 264.12H214.23C214.3 264.35 214.435 264.55 214.635 264.72C214.845 264.88 215.12 265.005 215.46 265.095C215.8 265.175 216.205 265.215 216.675 265.215C217.285 265.215 217.745 265.155 218.055 265.035C218.375 264.915 218.535 264.735 218.535 264.495C218.535 264.305 218.415 264.165 218.175 264.075C217.935 263.975 217.525 263.9 216.945 263.85L215.43 263.73C214.42 263.66 213.615 263.51 213.015 263.28C212.425 263.04 212 262.735 211.74 262.365C211.48 261.985 211.35 261.555 211.35 261.075C211.35 260.425 211.55 259.89 211.95 259.47C212.36 259.04 212.925 258.72 213.645 258.51C214.375 258.29 215.225 258.18 216.195 258.18C217.155 258.18 218.01 258.305 218.76 258.555C219.51 258.805 220.11 259.155 220.56 259.605C221.01 260.045 221.27 260.565 221.34 261.165H218.235C218.185 260.975 218.075 260.805 217.905 260.655C217.735 260.495 217.5 260.365 217.2 260.265C216.9 260.165 216.515 260.115 216.045 260.115C215.495 260.115 215.075 260.175 214.785 260.295C214.505 260.415 214.365 260.585 214.365 260.805C214.365 260.975 214.45 261.11 214.62 261.21C214.8 261.31 215.13 261.38 215.61 261.42L217.605 261.57C218.595 261.63 219.375 261.775 219.945 262.005C220.515 262.225 220.92 262.52 221.16 262.89C221.4 263.26 221.52 263.7 221.52 264.21ZM224.161 258.3L225.706 258.6L227.236 258.3V267H224.161V258.3ZM225.691 257.595C225.161 257.595 224.731 257.465 224.401 257.205C224.071 256.935 223.906 256.57 223.906 256.11C223.906 255.66 224.071 255.3 224.401 255.03C224.731 254.76 225.161 254.625 225.691 254.625C226.241 254.625 226.676 254.76 226.996 255.03C227.326 255.3 227.491 255.66 227.491 256.11C227.491 256.57 227.326 256.935 226.996 257.205C226.676 257.465 226.241 257.595 225.691 257.595ZM237.757 264.84V263.385L237.862 263.025V260.925L237.757 260.61V258.435H240.817V264.72C240.817 265.77 240.572 266.67 240.082 267.42C239.592 268.17 238.907 268.74 238.027 269.13C237.157 269.52 236.127 269.715 234.937 269.715C234.147 269.715 233.412 269.61 232.732 269.4C232.062 269.2 231.392 268.9 230.722 268.5V266.19C231.342 266.65 231.992 266.98 232.672 267.18C233.362 267.39 234.052 267.495 234.742 267.495C235.722 267.495 236.467 267.285 236.977 266.865C237.497 266.445 237.757 265.77 237.757 264.84ZM234.082 266.1C233.272 266.1 232.552 265.935 231.922 265.605C231.292 265.275 230.792 264.815 230.422 264.225C230.062 263.625 229.882 262.93 229.882 262.14C229.882 261.34 230.062 260.645 230.422 260.055C230.792 259.465 231.292 259.005 231.922 258.675C232.552 258.345 233.272 258.18 234.082 258.18C234.682 258.18 235.232 258.275 235.732 258.465C236.232 258.645 236.677 258.89 237.067 259.2C237.457 259.5 237.782 259.83 238.042 260.19C238.312 260.54 238.517 260.89 238.657 261.24C238.797 261.59 238.867 261.9 238.867 262.17C238.867 262.54 238.757 262.95 238.537 263.4C238.327 263.85 238.017 264.28 237.607 264.69C237.197 265.1 236.692 265.44 236.092 265.71C235.502 265.97 234.832 266.1 234.082 266.1ZM235.117 264.015C235.707 264.015 236.232 263.86 236.692 263.55C237.152 263.24 237.542 262.77 237.862 262.14C237.532 261.5 237.137 261.03 236.677 260.73C236.217 260.42 235.697 260.265 235.117 260.265C234.677 260.265 234.292 260.34 233.962 260.49C233.642 260.64 233.397 260.86 233.227 261.15C233.057 261.43 232.972 261.76 232.972 262.14C232.972 262.51 233.057 262.84 233.227 263.13C233.397 263.41 233.642 263.63 233.962 263.79C234.282 263.94 234.667 264.015 235.117 264.015ZM243.419 258.435H246.494L247.049 261.855V267H243.989V261.39L243.419 258.435ZM250.199 258.18C251.019 258.18 251.719 258.345 252.299 258.675C252.879 259.005 253.319 259.47 253.619 260.07C253.929 260.67 254.084 261.38 254.084 262.2V267H251.024V262.65C251.024 262.01 250.859 261.52 250.529 261.18C250.209 260.84 249.744 260.67 249.134 260.67C248.714 260.67 248.344 260.76 248.024 260.94C247.714 261.12 247.474 261.375 247.304 261.705C247.134 262.035 247.049 262.425 247.049 262.875L246.104 262.38C246.224 261.47 246.479 260.705 246.869 260.085C247.259 259.455 247.739 258.98 248.309 258.66C248.879 258.34 249.509 258.18 250.199 258.18Z" fill="#141414"/>
<rect x="592" y="44.0488" width="162.931" height="33.9666" stroke="#0071C2"/>
<rect x="589.892" y="74.6281" width="4.47979" height="4.47979" fill="white" stroke="#0071C2"/>
<rect x="752.355" y="74.6281" width="4.47979" height="4.47979" fill="white" stroke="#0071C2"/>
<rect x="589.5" y="42.5" width="4.47979" height="4.47979" fill="white" stroke="#0071C2"/>
<rect x="751.963" y="42.5" width="4.47979" height="4.47979" fill="white" stroke="#0071C2"/>
<rect x="594.645" y="46.4376" width="158.498" height="29.1889" rx="14.5" fill="#BDB4FE" stroke="#141414"/>
<path d="M624.222 59.355H632.382V61.98H624.222V59.355ZM632.667 54.75V57.375H624.327L625.812 55.89V66H622.707V54.75H632.667ZM634.897 57.435H638.017L638.527 60.495V66H635.467V60.315L634.897 57.435ZM642.547 57.3V59.91C642.247 59.85 641.962 59.81 641.692 59.79C641.432 59.76 641.192 59.745 640.972 59.745C640.532 59.745 640.127 59.835 639.757 60.015C639.387 60.185 639.087 60.47 638.857 60.87C638.637 61.27 638.527 61.805 638.527 62.475L637.942 61.755C638.022 61.135 638.142 60.555 638.302 60.015C638.462 59.465 638.677 58.98 638.947 58.56C639.227 58.13 639.572 57.795 639.982 57.555C640.392 57.305 640.892 57.18 641.482 57.18C641.652 57.18 641.827 57.19 642.007 57.21C642.187 57.23 642.367 57.26 642.547 57.3ZM649.808 66.24C648.708 66.24 647.748 66.055 646.928 65.685C646.108 65.305 645.468 64.775 645.008 64.095C644.548 63.405 644.318 62.615 644.318 61.725C644.318 60.815 644.548 60.02 645.008 59.34C645.468 58.66 646.108 58.13 646.928 57.75C647.748 57.37 648.708 57.18 649.808 57.18C650.898 57.18 651.853 57.37 652.673 57.75C653.503 58.13 654.148 58.66 654.608 59.34C655.068 60.02 655.298 60.815 655.298 61.725C655.298 62.615 655.068 63.405 654.608 64.095C654.148 64.775 653.503 65.305 652.673 65.685C651.853 66.055 650.898 66.24 649.808 66.24ZM649.808 63.975C650.308 63.975 650.733 63.885 651.083 63.705C651.443 63.525 651.718 63.265 651.908 62.925C652.098 62.585 652.193 62.185 652.193 61.725C652.193 61.245 652.098 60.84 651.908 60.51C651.718 60.17 651.443 59.91 651.083 59.73C650.733 59.55 650.308 59.46 649.808 59.46C649.308 59.46 648.878 59.55 648.518 59.73C648.158 59.91 647.883 60.17 647.693 60.51C647.503 60.84 647.408 61.24 647.408 61.71C647.408 62.18 647.503 62.585 647.693 62.925C647.883 63.265 648.158 63.525 648.518 63.705C648.878 63.885 649.308 63.975 649.808 63.975ZM657.475 57.435H660.55L661.105 60.855V66H658.045V60.39L657.475 57.435ZM664.255 57.18C665.075 57.18 665.775 57.345 666.355 57.675C666.935 58.005 667.375 58.47 667.675 59.07C667.985 59.67 668.14 60.38 668.14 61.2V66H665.08V61.65C665.08 61.01 664.915 60.52 664.585 60.18C664.265 59.84 663.8 59.67 663.19 59.67C662.77 59.67 662.4 59.76 662.08 59.94C661.77 60.12 661.53 60.375 661.36 60.705C661.19 61.035 661.105 61.425 661.105 61.875L660.16 61.38C660.28 60.47 660.535 59.705 660.925 59.085C661.315 58.455 661.795 57.98 662.365 57.66C662.935 57.34 663.565 57.18 664.255 57.18ZM670.184 59.7V58.365L671.924 57.66L673.244 55.125H674.984V57.435H678.584V59.7H674.984V62.22C674.984 62.84 675.109 63.275 675.359 63.525C675.609 63.775 676.064 63.9 676.724 63.9C677.144 63.9 677.514 63.865 677.834 63.795C678.164 63.715 678.464 63.615 678.734 63.495V65.805C678.434 65.915 678.039 66.015 677.549 66.105C677.059 66.195 676.554 66.24 676.034 66.24C675.084 66.24 674.304 66.095 673.694 65.805C673.094 65.515 672.649 65.1 672.359 64.56C672.069 64.01 671.924 63.37 671.924 62.64V59.7H670.184ZM681.189 59.55H685.134V61.965H681.189V59.55ZM693.161 66.24C692.121 66.24 691.191 66.05 690.371 65.67C689.561 65.29 688.921 64.76 688.451 64.08C687.981 63.39 687.746 62.59 687.746 61.68C687.746 60.79 687.971 60.01 688.421 59.34C688.871 58.66 689.486 58.13 690.266 57.75C691.056 57.37 691.946 57.18 692.936 57.18C693.966 57.18 694.841 57.405 695.561 57.855C696.291 58.295 696.851 58.92 697.241 59.73C697.641 60.54 697.841 61.495 697.841 62.595H690.221V60.75H696.116L695.111 61.395C695.071 60.955 694.961 60.585 694.781 60.285C694.601 59.975 694.361 59.74 694.061 59.58C693.771 59.42 693.421 59.34 693.011 59.34C692.561 59.34 692.176 59.43 691.856 59.61C691.536 59.79 691.286 60.04 691.106 60.36C690.926 60.67 690.836 61.035 690.836 61.455C690.836 61.995 690.956 62.455 691.196 62.835C691.446 63.205 691.806 63.49 692.276 63.69C692.756 63.89 693.341 63.99 694.031 63.99C694.661 63.99 695.286 63.91 695.906 63.75C696.536 63.58 697.106 63.345 697.616 63.045V64.995C697.026 65.395 696.351 65.705 695.591 65.925C694.841 66.135 694.031 66.24 693.161 66.24ZM700.052 57.435H703.127L703.682 60.855V66H700.622V60.39L700.052 57.435ZM706.832 57.18C707.652 57.18 708.352 57.345 708.932 57.675C709.512 58.005 709.952 58.47 710.252 59.07C710.562 59.67 710.717 60.38 710.717 61.2V66H707.657V61.65C707.657 61.01 707.492 60.52 707.162 60.18C706.842 59.84 706.377 59.67 705.767 59.67C705.347 59.67 704.977 59.76 704.657 59.94C704.347 60.12 704.107 60.375 703.937 60.705C703.767 61.035 703.682 61.425 703.682 61.875L702.737 61.38C702.857 60.47 703.112 59.705 703.502 59.085C703.892 58.455 704.372 57.98 704.942 57.66C705.512 57.34 706.142 57.18 706.832 57.18ZM721.443 66L721.038 62.79L721.563 61.74L721.053 60.42L721.773 54.45H724.953L724.068 61.485L724.608 66H721.443ZM722.103 61.725C721.963 62.625 721.683 63.415 721.263 64.095C720.853 64.775 720.328 65.305 719.688 65.685C719.058 66.055 718.338 66.24 717.528 66.24C716.688 66.24 715.948 66.055 715.308 65.685C714.678 65.305 714.183 64.775 713.823 64.095C713.463 63.405 713.283 62.615 713.283 61.725C713.283 60.815 713.463 60.02 713.823 59.34C714.183 58.66 714.678 58.13 715.308 57.75C715.948 57.37 716.688 57.18 717.528 57.18C718.338 57.18 719.058 57.37 719.688 57.75C720.328 58.12 720.858 58.645 721.278 59.325C721.698 59.995 721.973 60.795 722.103 61.725ZM716.388 61.725C716.388 62.145 716.473 62.52 716.643 62.85C716.823 63.18 717.068 63.44 717.378 63.63C717.688 63.81 718.043 63.9 718.443 63.9C718.863 63.9 719.258 63.81 719.628 63.63C719.998 63.44 720.323 63.18 720.603 62.85C720.883 62.52 721.093 62.145 721.233 61.725C721.093 61.295 720.883 60.915 720.603 60.585C720.323 60.255 719.998 59.995 719.628 59.805C719.258 59.615 718.863 59.52 718.443 59.52C718.043 59.52 717.688 59.615 717.378 59.805C717.068 59.995 716.823 60.255 716.643 60.585C716.473 60.915 716.388 61.295 716.388 61.725Z" fill="#141414"/>
<rect x="479.907" y="259.485" width="112.37" height="39.6136" stroke="#0071C2"/>
<rect x="478.948" y="296.283" width="3.91829" height="3.91829" fill="white" stroke="#0071C2"/>
<rect x="589.355" y="296.631" width="3.91829" height="3.91829" fill="white" stroke="#0071C2"/>
<rect x="478.5" y="257.5" width="3.91829" height="3.91829" fill="white" stroke="#0071C2"/>
<rect x="588.908" y="257.848" width="3.91829" height="3.91829" fill="white" stroke="#0071C2"/>
<rect x="486.021" y="262.112" width="99.9909" height="34.36" rx="14.5" fill="#EAFB88" stroke="#141414"/>
<path d="M504.567 280.655C504.567 281.165 504.662 281.61 504.852 281.99C505.052 282.36 505.342 282.645 505.722 282.845C506.112 283.045 506.587 283.145 507.147 283.145C507.717 283.145 508.192 283.045 508.572 282.845C508.952 282.645 509.237 282.36 509.427 281.99C509.617 281.61 509.712 281.165 509.712 280.655V274.43H512.832V280.805C512.832 281.835 512.592 282.735 512.112 283.505C511.642 284.265 510.982 284.86 510.132 285.29C509.282 285.71 508.287 285.92 507.147 285.92C506.017 285.92 505.022 285.71 504.162 285.29C503.312 284.86 502.647 284.265 502.167 283.505C501.697 282.735 501.462 281.835 501.462 280.805V274.43H504.567V280.655ZM522.703 280.775V278.885L528.223 285.68H524.398L520.753 280.97H522.283L518.623 285.68H514.843L520.393 278.9V280.76L515.173 274.43H519.058L522.358 278.69H520.828L524.083 274.43H527.908L522.703 280.775ZM538.114 274.025H540.394L536.194 286.085H533.914L538.114 274.025ZM550.604 280.655C550.604 281.165 550.699 281.61 550.889 281.99C551.089 282.36 551.379 282.645 551.759 282.845C552.149 283.045 552.624 283.145 553.184 283.145C553.754 283.145 554.229 283.045 554.609 282.845C554.989 282.645 555.274 282.36 555.464 281.99C555.654 281.61 555.749 281.165 555.749 280.655V274.43H558.869V280.805C558.869 281.835 558.629 282.735 558.149 283.505C557.679 284.265 557.019 284.86 556.169 285.29C555.319 285.71 554.324 285.92 553.184 285.92C552.054 285.92 551.059 285.71 550.199 285.29C549.349 284.86 548.684 284.265 548.204 283.505C547.734 282.735 547.499 281.835 547.499 280.805V274.43H550.604V280.655ZM562.168 274.43H565.273V285.68H562.168V274.43Z" fill="#141414"/>
<path d="M53.8144 86.47V76.72H55.5304V85.027L55.0104 84.702L61.5364 76.72H63.3954L55.3484 86.47H53.8144ZM58.4554 81.569L59.6644 80.386L63.5384 86.47H61.5754L58.4554 81.569ZM72.0001 86.47L71.7141 83.74L72.0521 82.791L71.7141 81.855L72.0001 79.112H73.7421L73.3521 82.791L73.7421 86.47H72.0001ZM72.5201 82.791C72.3554 83.5623 72.0824 84.2383 71.7011 84.819C71.3198 85.3996 70.8474 85.8503 70.2841 86.171C69.7294 86.4916 69.1098 86.652 68.4251 86.652C67.7058 86.652 67.0688 86.4916 66.5141 86.171C65.9594 85.8416 65.5261 85.3866 65.2141 84.806C64.9021 84.2253 64.7461 83.5536 64.7461 82.791C64.7461 82.0196 64.9021 81.348 65.2141 80.776C65.5261 80.1953 65.9594 79.7446 66.5141 79.424C67.0688 79.0946 67.7058 78.93 68.4251 78.93C69.1098 78.93 69.7294 79.0903 70.2841 79.411C70.8474 79.7316 71.3198 80.1823 71.7011 80.763C72.0911 81.335 72.3641 82.011 72.5201 82.791ZM66.4621 82.791C66.4621 83.285 66.5618 83.7226 66.7611 84.104C66.9691 84.4766 67.2508 84.7713 67.6061 84.988C67.9614 85.196 68.3688 85.3 68.8281 85.3C69.2961 85.3 69.7294 85.196 70.1281 84.988C70.5268 84.7713 70.8778 84.4766 71.1811 84.104C71.4931 83.7226 71.7401 83.285 71.9221 82.791C71.7401 82.297 71.4931 81.8636 71.1811 81.491C70.8778 81.1096 70.5268 80.815 70.1281 80.607C69.7294 80.3903 69.2961 80.282 68.8281 80.282C68.3688 80.282 67.9614 80.3903 67.6061 80.607C67.2508 80.815 66.9691 81.1096 66.7611 81.491C66.5618 81.8636 66.4621 82.297 66.4621 82.791ZM75.7065 80.412V79.645L77.2795 79.242L77.9815 77.188H78.9695V79.112H82.3885V80.412H78.9695V83.597C78.9695 84.2123 79.0995 84.6456 79.3595 84.897C79.6282 85.1396 80.0615 85.261 80.6595 85.261C81.0408 85.261 81.3788 85.222 81.6735 85.144C81.9682 85.0573 82.2498 84.936 82.5185 84.78V86.171C82.2932 86.2836 81.9725 86.392 81.5565 86.496C81.1492 86.6 80.7288 86.652 80.2955 86.652C79.5762 86.652 78.9955 86.535 78.5535 86.301C78.1115 86.0583 77.7865 85.729 77.5785 85.313C77.3792 84.8883 77.2795 84.403 77.2795 83.857V80.412H75.7065ZM91.5549 86.47L91.2689 83.74L91.6069 82.791L91.2689 81.855L91.5549 79.112H93.2969L92.9069 82.791L93.2969 86.47H91.5549ZM92.0749 82.791C91.9103 83.5623 91.6373 84.2383 91.2559 84.819C90.8746 85.3996 90.4023 85.8503 89.8389 86.171C89.2843 86.4916 88.6646 86.652 87.9799 86.652C87.2606 86.652 86.6236 86.4916 86.0689 86.171C85.5143 85.8416 85.0809 85.3866 84.7689 84.806C84.4569 84.2253 84.3009 83.5536 84.3009 82.791C84.3009 82.0196 84.4569 81.348 84.7689 80.776C85.0809 80.1953 85.5143 79.7446 86.0689 79.424C86.6236 79.0946 87.2606 78.93 87.9799 78.93C88.6646 78.93 89.2843 79.0903 89.8389 79.411C90.4023 79.7316 90.8746 80.1823 91.2559 80.763C91.6459 81.335 91.9189 82.011 92.0749 82.791ZM86.0169 82.791C86.0169 83.285 86.1166 83.7226 86.3159 84.104C86.5239 84.4766 86.8056 84.7713 87.1609 84.988C87.5163 85.196 87.9236 85.3 88.3829 85.3C88.8509 85.3 89.2843 85.196 89.6829 84.988C90.0816 84.7713 90.4326 84.4766 90.7359 84.104C91.0479 83.7226 91.2949 83.285 91.4769 82.791C91.2949 82.297 91.0479 81.8636 90.7359 81.491C90.4326 81.1096 90.0816 80.815 89.6829 80.607C89.2843 80.3903 88.8509 80.282 88.3829 80.282C87.9236 80.282 87.5163 80.3903 87.1609 80.607C86.8056 80.815 86.5239 81.1096 86.3159 81.491C86.1166 81.8636 86.0169 82.297 86.0169 82.791ZM95.7424 79.112H97.4324L97.8744 81.79V86.47H96.1844V81.465L95.7424 79.112ZM101.605 79.06V80.542C101.415 80.49 101.207 80.451 100.981 80.425C100.756 80.399 100.544 80.386 100.344 80.386C99.8677 80.386 99.443 80.49 99.0704 80.698C98.6977 80.906 98.403 81.218 98.1864 81.634C97.9784 82.0413 97.8744 82.544 97.8744 83.142L97.4844 82.661C97.519 82.141 97.6057 81.6556 97.7444 81.205C97.8917 80.7456 98.091 80.347 98.3424 80.009C98.6024 79.671 98.9187 79.4066 99.2914 79.216C99.664 79.0253 100.097 78.93 100.591 78.93C100.765 78.93 100.942 78.943 101.124 78.969C101.306 78.9863 101.467 79.0166 101.605 79.06ZM103.84 79.06L104.685 79.216L105.53 79.06V86.47H103.84V79.06ZM105.283 76.083H106.973L105.322 78.319H103.697L105.283 76.083ZM108.137 79.112H109.827L110.269 81.764V86.47H108.579V81.517L108.137 79.112ZM113.194 78.93C113.887 78.93 114.477 79.0686 114.962 79.346C115.447 79.6233 115.816 80.022 116.067 80.542C116.327 81.0533 116.457 81.673 116.457 82.401V86.47H114.767V82.674C114.767 81.9026 114.585 81.322 114.221 80.932C113.866 80.5333 113.341 80.334 112.648 80.334C112.171 80.334 111.751 80.4423 111.387 80.659C111.032 80.867 110.754 81.1616 110.555 81.543C110.364 81.9243 110.269 82.3706 110.269 82.882L109.671 82.557C109.749 81.7943 109.948 81.1443 110.269 80.607C110.59 80.0696 111.001 79.658 111.504 79.372C112.007 79.0773 112.57 78.93 113.194 78.93ZM126.183 86.47L125.897 83.74L126.235 82.791L125.897 81.855L126.183 79.112H127.925L127.535 82.791L127.925 86.47H126.183ZM126.703 82.791C126.539 83.5623 126.266 84.2383 125.884 84.819C125.503 85.3996 125.031 85.8503 124.467 86.171C123.913 86.4916 123.293 86.652 122.608 86.652C121.889 86.652 121.252 86.4916 120.697 86.171C120.143 85.8416 119.709 85.3866 119.397 84.806C119.085 84.2253 118.929 83.5536 118.929 82.791C118.929 82.0196 119.085 81.348 119.397 80.776C119.709 80.1953 120.143 79.7446 120.697 79.424C121.252 79.0946 121.889 78.93 122.608 78.93C123.293 78.93 123.913 79.0903 124.467 79.411C125.031 79.7316 125.503 80.1823 125.884 80.763C126.274 81.335 126.547 82.011 126.703 82.791ZM120.645 82.791C120.645 83.285 120.745 83.7226 120.944 84.104C121.152 84.4766 121.434 84.7713 121.789 84.988C122.145 85.196 122.552 85.3 123.011 85.3C123.479 85.3 123.913 85.196 124.311 84.988C124.71 84.7713 125.061 84.4766 125.364 84.104C125.676 83.7226 125.923 83.285 126.105 82.791C125.923 82.297 125.676 81.8636 125.364 81.491C125.061 81.1096 124.71 80.815 124.311 80.607C123.913 80.3903 123.479 80.282 123.011 80.282C122.552 80.282 122.145 80.3903 121.789 80.607C121.434 80.815 121.152 81.1096 120.944 81.491C120.745 81.8636 120.645 82.297 120.645 82.791Z" fill="#141414"/>
<path d="M135.345 86.47V76.72H138.023V84.325L137.308 83.766L142.833 76.72H145.68L137.776 86.47H135.345ZM139.999 81.816L141.975 80.178L145.81 86.47H142.755L139.999 81.816ZM151.417 86.678C150.464 86.678 149.632 86.5176 148.921 86.197C148.21 85.8676 147.656 85.4083 147.257 84.819C146.858 84.221 146.659 83.5363 146.659 82.765C146.659 81.9763 146.858 81.2873 147.257 80.698C147.656 80.1086 148.21 79.6493 148.921 79.32C149.632 78.9906 150.464 78.826 151.417 78.826C152.362 78.826 153.189 78.9906 153.9 79.32C154.619 79.6493 155.178 80.1086 155.577 80.698C155.976 81.2873 156.175 81.9763 156.175 82.765C156.175 83.5363 155.976 84.221 155.577 84.819C155.178 85.4083 154.619 85.8676 153.9 86.197C153.189 86.5176 152.362 86.678 151.417 86.678ZM151.417 84.715C151.85 84.715 152.219 84.637 152.522 84.481C152.834 84.325 153.072 84.0996 153.237 83.805C153.402 83.5103 153.484 83.1636 153.484 82.765C153.484 82.349 153.402 81.998 153.237 81.712C153.072 81.4173 152.834 81.192 152.522 81.036C152.219 80.88 151.85 80.802 151.417 80.802C150.984 80.802 150.611 80.88 150.299 81.036C149.987 81.192 149.749 81.4173 149.584 81.712C149.419 81.998 149.337 82.3446 149.337 82.752C149.337 83.1593 149.419 83.5103 149.584 83.805C149.749 84.0996 149.987 84.325 150.299 84.481C150.611 84.637 150.984 84.715 151.417 84.715ZM158.061 79.047H160.765L161.207 81.699V86.47H158.555V81.543L158.061 79.047ZM164.691 78.93V81.192C164.431 81.14 164.184 81.1053 163.95 81.088C163.725 81.062 163.517 81.049 163.326 81.049C162.945 81.049 162.594 81.127 162.273 81.283C161.953 81.4303 161.693 81.6773 161.493 82.024C161.303 82.3706 161.207 82.8343 161.207 83.415L160.7 82.791C160.77 82.2536 160.874 81.751 161.012 81.283C161.151 80.8063 161.337 80.386 161.571 80.022C161.814 79.6493 162.113 79.359 162.468 79.151C162.824 78.9343 163.257 78.826 163.768 78.826C163.916 78.826 164.067 78.8346 164.223 78.852C164.379 78.8693 164.535 78.8953 164.691 78.93ZM170.92 86.678C170.018 86.678 169.212 86.5133 168.502 86.184C167.8 85.8546 167.245 85.3953 166.838 84.806C166.43 84.208 166.227 83.5146 166.227 82.726C166.227 81.9546 166.422 81.2786 166.812 80.698C167.202 80.1086 167.735 79.6493 168.411 79.32C169.095 78.9906 169.867 78.826 170.725 78.826C171.617 78.826 172.376 79.021 173 79.411C173.632 79.7923 174.118 80.334 174.456 81.036C174.802 81.738 174.976 82.5656 174.976 83.519H168.372V81.92H173.481L172.61 82.479C172.575 82.0976 172.48 81.777 172.324 81.517C172.168 81.2483 171.96 81.0446 171.7 80.906C171.448 80.7673 171.145 80.698 170.79 80.698C170.4 80.698 170.066 80.776 169.789 80.932C169.511 81.088 169.295 81.3046 169.139 81.582C168.983 81.8506 168.905 82.167 168.905 82.531C168.905 82.999 169.009 83.3976 169.217 83.727C169.433 84.0476 169.745 84.2946 170.153 84.468C170.569 84.6413 171.076 84.728 171.674 84.728C172.22 84.728 172.761 84.6586 173.299 84.52C173.845 84.3726 174.339 84.169 174.781 83.909V85.599C174.269 85.9456 173.684 86.2143 173.026 86.405C172.376 86.587 171.674 86.678 170.92 86.678ZM186.135 83.337C186.065 84.0043 185.823 84.5893 185.407 85.092C184.991 85.5946 184.449 85.9846 183.782 86.262C183.123 86.5393 182.382 86.678 181.559 86.678C180.649 86.678 179.847 86.5133 179.154 86.184C178.46 85.8546 177.919 85.3953 177.529 84.806C177.139 84.2166 176.944 83.5363 176.944 82.765C176.944 81.985 177.139 81.3003 177.529 80.711C177.919 80.1216 178.46 79.6623 179.154 79.333C179.847 78.995 180.649 78.826 181.559 78.826C182.382 78.826 183.123 78.969 183.782 79.255C184.449 79.5323 184.991 79.9223 185.407 80.425C185.823 80.919 186.065 81.504 186.135 82.18H183.496C183.4 81.738 183.179 81.4 182.833 81.166C182.486 80.9233 182.061 80.802 181.559 80.802C181.169 80.802 180.826 80.88 180.532 81.036C180.246 81.1833 180.02 81.4043 179.856 81.699C179.7 81.985 179.622 82.3403 179.622 82.765C179.622 83.181 179.7 83.5363 179.856 83.831C180.02 84.117 180.246 84.338 180.532 84.494C180.826 84.6413 181.169 84.715 181.559 84.715C182.061 84.715 182.486 84.5893 182.833 84.338C183.188 84.0866 183.409 83.753 183.496 83.337H186.135ZM182.95 78.319H180.22L178.361 75.862H180.467L182.196 77.669H180.974L182.703 75.862H184.809L182.95 78.319ZM191.019 84.351L190.291 84.104L194.399 79.047H197.194L190.733 86.47H188.354V76.46H191.019V84.351ZM192.28 82.843L194.282 81.439L197.389 86.47H194.399L192.28 82.843ZM203.135 86.678C202.182 86.678 201.35 86.5176 200.639 86.197C199.929 85.8676 199.374 85.4083 198.975 84.819C198.577 84.221 198.377 83.5363 198.377 82.765C198.377 81.9763 198.577 81.2873 198.975 80.698C199.374 80.1086 199.929 79.6493 200.639 79.32C201.35 78.9906 202.182 78.826 203.135 78.826C204.08 78.826 204.908 78.9906 205.618 79.32C206.338 79.6493 206.897 80.1086 207.295 80.698C207.694 81.2873 207.893 81.9763 207.893 82.765C207.893 83.5363 207.694 84.221 207.295 84.819C206.897 85.4083 206.338 85.8676 205.618 86.197C204.908 86.5176 204.08 86.678 203.135 86.678ZM203.135 84.715C203.569 84.715 203.937 84.637 204.24 84.481C204.552 84.325 204.791 84.0996 204.955 83.805C205.12 83.5103 205.202 83.1636 205.202 82.765C205.202 82.349 205.12 81.998 204.955 81.712C204.791 81.4173 204.552 81.192 204.24 81.036C203.937 80.88 203.569 80.802 203.135 80.802C202.702 80.802 202.329 80.88 202.017 81.036C201.705 81.192 201.467 81.4173 201.302 81.712C201.138 81.998 201.055 82.3446 201.055 82.752C201.055 83.1593 201.138 83.5103 201.302 83.805C201.467 84.0996 201.705 84.325 202.017 84.481C202.329 84.637 202.702 84.715 203.135 84.715ZM214.495 85.209L213.585 85.196L216.159 79.047H218.993L215.522 86.47H212.493L209.022 79.047H211.96L214.495 85.209ZM227.2 86.47L226.862 83.792L227.213 82.765L226.862 81.738L227.2 79.047H229.956L229.488 82.752L229.956 86.47H227.2ZM227.824 82.765C227.702 83.545 227.46 84.2296 227.096 84.819C226.74 85.4083 226.285 85.8676 225.731 86.197C225.185 86.5176 224.561 86.678 223.859 86.678C223.131 86.678 222.489 86.5176 221.935 86.197C221.389 85.8676 220.96 85.4083 220.648 84.819C220.336 84.221 220.18 83.5363 220.18 82.765C220.18 81.9763 220.336 81.2873 220.648 80.698C220.96 80.1086 221.389 79.6493 221.935 79.32C222.489 78.9906 223.131 78.826 223.859 78.826C224.561 78.826 225.185 78.9906 225.731 79.32C226.285 79.6406 226.745 80.0956 227.109 80.685C227.473 81.2656 227.711 81.959 227.824 82.765ZM222.871 82.765C222.871 83.129 222.944 83.454 223.092 83.74C223.248 84.026 223.46 84.2513 223.729 84.416C223.997 84.572 224.305 84.65 224.652 84.65C225.016 84.65 225.358 84.572 225.679 84.416C225.999 84.2513 226.281 84.026 226.524 83.74C226.766 83.454 226.948 83.129 227.07 82.765C226.948 82.3923 226.766 82.063 226.524 81.777C226.281 81.491 225.999 81.2656 225.679 81.101C225.358 80.9363 225.016 80.854 224.652 80.854C224.305 80.854 223.997 80.9363 223.729 81.101C223.46 81.2656 223.248 81.491 223.092 81.777C222.944 82.063 222.871 82.3923 222.871 82.765ZM225.289 75.862H227.863L226.108 78.319H223.651L225.289 75.862Z" fill="#EEB6F7"/>
<rect x="49.9146" y="70.4182" width="194.248" height="22.4867" stroke="#0071C2"/>
<rect x="48.6956" y="90.3391" width="3.83286" height="3.83286" fill="white" stroke="#0071C2"/>
<rect x="241.39" y="90.7633" width="3.83286" height="3.83286" fill="white" stroke="#0071C2"/>
<rect x="48.5" y="68.5" width="3.83286" height="3.83286" fill="white" stroke="#0071C2"/>
<rect x="241.39" y="69.2614" width="3.83286" height="3.83286" fill="white" stroke="#0071C2"/>
<path d="M233.719 88.2296H236.927C237.174 88.2296 237.306 88.1089 237.306 87.9057C237.306 87.6968 237.174 87.5869 236.927 87.5869H235.691V77.4305H236.927C237.174 77.4305 237.306 77.3152 237.306 77.1063C237.306 76.9031 237.174 76.7935 236.927 76.7935H233.719C233.466 76.7935 233.34 76.9031 233.34 77.1066C233.34 77.3152 233.467 77.4305 233.719 77.4305H234.949V87.5869H233.719C233.466 87.5869 233.34 87.6968 233.34 87.9057C233.34 88.1089 233.467 88.2296 233.719 88.2296Z" fill="#141414"/>
<defs>
<clipPath id="clip0_13_171">
<rect x="219.479" y="133" width="53.0628" height="51.5888" rx="25.7944" transform="rotate(45 219.479 133)" fill="white"/>
</clipPath>
</defs>
</svg>
